<svg xmlns="http://www.w3.org/2000/svg" xmlns:xlink="http://www.w3.org/1999/xlink" viewBox="0 0 64 64" version="1.1" width="64" height="64">
<g id="surface1">
<path style=" fill:#FFEFB8;" d="M 21 41 L 26 41 L 26 47 L 21 47 Z "/>
<path style=" fill:#C2CDE7;" d="M 20.769531 59 L 16 59 L 10 40 L 21 41 L 22.75 56.78125 C 22.8125 57.34375 22.632813 57.90625 22.253906 58.332031 C 21.878906 58.753906 21.335938 58.996094 20.769531 59 Z "/>
<path style=" fill:#B5C4E0;" d="M 21 46 L 22.359375 58.199219 C 22.667969 57.796875 22.8125 57.285156 22.761719 56.78125 L 21 41 L 10 40 L 11.628906 45.148438 Z "/>
<path style=" fill:#FFEFB8;" d="M 61 32 L 55 34 L 55 24 L 61 26 Z "/>
<path style=" fill:#85CBF8;" d="M 51.878906 52.878906 L 37.328125 43 L 23 41 L 23 17 L 36.921875 15 L 51.921875 5.058594 C 52.535156 4.667969 53.3125 4.636719 53.953125 4.984375 C 54.59375 5.332031 54.996094 6 55 6.730469 L 55 51.230469 C 54.996094 51.96875 54.589844 52.644531 53.933594 52.992188 C 53.28125 53.335938 52.492188 53.292969 51.878906 52.878906 Z "/>
<path style=" fill:#6FC6F0;" d="M 23 34 L 23 41 L 37.328125 43 L 51.871094 52.878906 C 52.484375 53.300781 53.28125 53.34375 53.9375 52.996094 C 54.59375 52.648438 55.003906 51.964844 55 51.21875 L 55 41.21875 C 55 39.351563 53.703125 37.730469 51.878906 37.320313 L 37.328125 34 Z "/>
<path style=" fill:#ED7899;" d="M 23 41 L 8.398438 39.539063 C 5.324219 39.230469 2.984375 36.632813 3 33.539063 L 3 24.429688 C 2.984375 21.335938 5.324219 18.738281 8.398438 18.429688 L 23 17 Z "/>
<path style=" fill:#E26A90;" d="M 5.851563 34 C 5.101563 34 4.414063 34.417969 4.070313 35.082031 C 3.726563 35.75 3.785156 36.550781 4.21875 37.160156 C 5.214844 38.507813 6.734375 39.371094 8.398438 39.539063 L 23 41 L 23 35 C 23 34.449219 22.550781 34 22 34 Z "/>
<path style=" fill:#8D6C9F;" d="M 49 40 C 48.449219 40 48 40.449219 48 41 L 48 45.25 C 48 45.800781 48.449219 46.25 49 46.25 C 49.550781 46.25 50 45.800781 50 45.25 L 50 41 C 50 40.449219 49.550781 40 49 40 Z "/>
<path style=" fill:#8D6C9F;" d="M 59.949219 24.601563 L 56 23.28125 L 56 6.738281 C 56 5.632813 55.394531 4.617188 54.417969 4.09375 C 53.445313 3.574219 52.261719 3.628906 51.339844 4.238281 L 38.449219 12.839844 C 37.269531 13.628906 35.917969 14.125 34.511719 14.289063 L 8.179688 17.378906 C 4.636719 17.796875 1.976563 20.8125 2 24.378906 L 2 33.710938 C 1.976563 37.277344 4.636719 40.292969 8.179688 40.710938 L 9.179688 40.828125 L 14.609375 57.898438 C 15.003906 59.148438 16.160156 60 17.46875 60 L 20.761719 60 C 21.621094 60.007813 22.441406 59.640625 23.015625 59 C 23.589844 58.359375 23.859375 57.503906 23.761719 56.648438 L 22.761719 48 L 24.609375 48 C 25.507813 48 26.359375 47.597656 26.929688 46.902344 C 27.5 46.207031 27.726563 45.292969 27.550781 44.410156 L 27.238281 42.851563 L 34.550781 43.710938 C 35.960938 43.875 37.308594 44.371094 38.488281 45.160156 L 51.378906 53.761719 C 52.300781 54.351563 53.46875 54.394531 54.429688 53.875 C 55.390625 53.355469 55.992188 52.351563 56 51.261719 L 56 34.71875 L 59.949219 33.398438 C 61.171875 32.992188 61.996094 31.847656 62 30.558594 L 62 27.441406 C 61.996094 26.152344 61.171875 25.007813 59.949219 24.601563 Z M 4 33.660156 L 4 24.339844 C 3.984375 21.789063 5.886719 19.636719 8.421875 19.339844 L 22 17.78125 L 22 40.21875 L 8.421875 38.628906 C 5.898438 38.335938 4 36.199219 4 33.660156 Z M 21.5 57.660156 C 21.308594 57.875 21.039063 58 20.75 58 L 17.46875 58 C 17.015625 58.019531 16.605469 57.734375 16.46875 57.300781 L 11.359375 41 L 20 42 C 19.996094 42.035156 19.996094 42.074219 20 42.109375 L 21.738281 56.878906 C 21.773438 57.164063 21.6875 57.445313 21.5 57.660156 Z M 25.5 44.800781 C 25.5625 45.097656 25.484375 45.40625 25.289063 45.640625 C 25.09375 45.875 24.804688 46.007813 24.5 46 L 22.480469 46 L 22 42.25 L 25.070313 42.609375 Z M 54 51.261719 C 54 51.625 53.796875 51.964844 53.472656 52.136719 C 53.148438 52.308594 52.757813 52.292969 52.449219 52.089844 L 39.550781 43.5 C 38.105469 42.539063 36.453125 41.933594 34.730469 41.730469 L 23.910156 40.449219 C 23.917969 40.371094 23.917969 40.289063 23.910156 40.210938 L 23.910156 17.539063 L 34.691406 16.269531 C 36.414063 16.066406 38.066406 15.460938 39.511719 14.5 L 48 8.898438 L 48 37.210938 C 48 37.761719 48.449219 38.210938 49 38.210938 C 49.550781 38.210938 50 37.761719 50 37.210938 L 50 8 C 49.996094 7.878906 49.972656 7.761719 49.929688 7.648438 L 52.449219 5.898438 C 52.757813 5.695313 53.152344 5.679688 53.476563 5.855469 C 53.800781 6.03125 54 6.371094 54 6.738281 Z M 60 30.558594 C 60 30.988281 59.726563 31.371094 59.320313 31.511719 L 56 32.609375 L 56 25.390625 L 59.320313 26.5 C 59.726563 26.636719 60 27.019531 60 27.449219 Z "/>
<path style=" fill:#8D6C9F;" d="M 29 18 L 27 18 C 26.449219 18 26 18.449219 26 19 C 26 19.550781 26.449219 20 27 20 L 29 20 C 29.550781 20 30 19.550781 30 19 C 30 18.449219 29.550781 18 29 18 Z "/>
<path style=" fill:#8D6C9F;" d="M 29 23 L 27 23 C 26.449219 23 26 23.449219 26 24 C 26 24.550781 26.449219 25 27 25 L 29 25 C 29.550781 25 30 24.550781 30 24 C 30 23.449219 29.550781 23 29 23 Z "/>
<path style=" fill:#8D6C9F;" d="M 29 28 L 27 28 C 26.449219 28 26 28.449219 26 29 C 26 29.550781 26.449219 30 27 30 L 29 30 C 29.550781 30 30 29.550781 30 29 C 30 28.449219 29.550781 28 29 28 Z "/>
<path style=" fill:#8D6C9F;" d="M 29 33 L 27 33 C 26.449219 33 26 33.449219 26 34 C 26 34.550781 26.449219 35 27 35 L 29 35 C 29.550781 35 30 34.550781 30 34 C 30 33.449219 29.550781 33 29 33 Z "/>
<path style=" fill:#8D6C9F;" d="M 29 38 L 27 38 C 26.449219 38 26 38.449219 26 39 C 26 39.550781 26.449219 40 27 40 L 29 40 C 29.550781 40 30 39.550781 30 39 C 30 38.449219 29.550781 38 29 38 Z "/>
</g>
</svg>