<?xml version="1.0" encoding="UTF-8" standalone="no"?>
<svg id="svg4141" xmlns:rdf="http://www.w3.org/1999/02/22-rdf-syntax-ns#" xmlns="http://www.w3.org/2000/svg" height="50" viewBox="0 0 900 50" width="900" version="1.1" xmlns:cc="http://creativecommons.org/ns#" xmlns:dc="http://purl.org/dc/elements/1.1/">
 <metadata id="metadata4153">
  <rdf:RDF>
   <cc:Work rdf:about="">
    <dc:format>image/svg+xml</dc:format>
    <dc:type rdf:resource="http://purl.org/dc/dcmitype/StillImage"/>
    <dc:title/>
   </cc:Work>
  </rdf:RDF>
 </metadata>
 <g id="g4969" fill="#808080" transform="matrix(.26439 0 0 .26439 197.09 86.128)">
  <path id="path4143" d="m-538.62-251.25-4.1422 12.607h-15.364l-11.58 35.351h-15.498l11.58-35.351h-15.834l4.1427-12.607h46.696zm45.555 0-3.7676 11.472h-24.354l-2.0532 6.4036h20.53l-3.6293 11.006h-20.53l-2.4069 7.4033h25.293l-3.7989 11.673h-40.858l15.723-47.958h39.852zm35.068 35.218-4.1626 12.74h-37.973l15.723-47.958h15.498l-11.559 35.218h22.475zm56.377-35.218-4.1422 12.607h-15.364l-11.58 35.351h-15.499l11.581-35.351h-15.834l4.1432-12.607h46.695zm47.734 18.209c-0.21783 1.4227-0.40783 2.4455-0.5704 3.0681-0.16201 0.62249-0.44663 1.5341-0.85389 2.7345-2.6221 7.7822-6.9169 13.93-12.885 18.443-5.9684 4.5134-12.888 6.7701-20.761 6.7701-6.7539 0-11.754-1.7449-14.999-5.236-3.2452-3.4904-4.4026-8.282-3.4701-14.374 0.2448-1.6009 0.70915-3.4684 1.3936-5.603 2.5564-7.6482 6.8706-13.774 12.942-18.376 6.0716-4.602 12.976-6.9035 20.714-6.9035 6.7539 0 11.757 1.7235 15.009 5.1692 3.2526 3.4464 4.4128 8.2159 3.4808 14.308zm-15.805 1.1338c0.40141-2.6237 0.17043-4.6249-0.69197-6.0033-1.039-1.6895-3.0115-2.5343-5.9193-2.5343-3.667 0-6.7335 1.3339-9.1994 4.0016-1.9365 2.1345-3.569 5.2032-4.897 9.2049-0.2498 0.75594-0.4811 1.534-0.69251 2.3346-0.21188 0.80065-0.37603 1.5788-0.49128 2.3347-0.40139 2.6237-0.17042 4.6242 0.69141 6.0028 1.039 1.6901 3.0117 2.5349 5.9193 2.5349 3.6228 0 6.6673-1.3339 9.1327-4.0022 1.9812-2.1346 3.6364-5.2026 4.9638-9.2047 0.59939-1.8677 0.9938-3.4238 1.1842-4.6688zm75.954-19.343-15.724 47.958h-14.693l-6.8104-22.145c-0.0251-0.13359-0.27674-1.556-0.75542-4.2685-0.14644-0.80063-0.32665-1.6675-0.54185-2.6015l-0.12223 0.80063c-0.27205 1.7784-0.74363 3.6906-1.4146 5.7358l-7.3297 22.479h-14.693l15.723-47.958h14.693l6.7221 22.278c0.15609 0.44499 0.25825 0.94484 0.30745 1.5007 0.0495 0.55579 0.0999 1.1008 0.15288 1.6346l0.83724 3.7347 0.12265-0.80013c0.25827-1.69 0.73023-3.6018 1.4146-5.7363l7.4174-22.611h14.693zm25.762 0-15.722 47.958h-15.834l15.723-47.958h15.833zm60.383 0-24.71 17.676 11.403 30.282h-19.054l-7.0573-19.21-6.4392 3.935-5.0207 15.275h-15.296l15.722-47.958h15.298l-5.1796 15.875 21.684-15.875h18.651zm36.675 47.958h-15.364l0.0968-6.3363h-17.98l-4.1227 6.3363h-15.162l34.106-47.958h15.699l2.727 47.958zm-15-16.408-0.47786-16.609-11.33 16.609h11.807zm-488.18 26.089 0.0188-0.0161-36.725-36.725 0.0405-0.0405-0.0251-0.022 36.173-37.271-0.0188-0.0161 15.154-15.619 15.584 15.121 13.913-14.338 15.335 14.879 14.944-15.402 15.619 15.155-15.157 15.614-12.685-12.307-33.425 34.44 33.919 33.918 12.498-12.498 15.387 15.387-15.387 15.387-15.387-15.387 0.0188-0.0188-36.724-36.724 0.0401-0.0411-0.022-0.0221 21.225-21.871-12.421-12.051-33.424 34.44 33.918 33.918 12.497-12.497 15.387 15.387-15.386 15.387-15.14-15.14-14.357 14.357-15.387-15.387zm15.064-58.956-12.669-12.291-33.425 34.439 33.919 33.919 11.485-11.485-21.585-21.585 0.041-0.041-0.0251-0.022 22.258-22.934z" fill-rule="evenodd" stroke-width="1.3415"/>
  <g id="g4236" transform="matrix(1.7685 0 0 1.7685 365.75 -262.03)">
   <g id="g4156" fill="#808080">
    <path id="path4158" d="m152.7 28.661c0-5.675 4.713-10.293 10.388-10.293h30.298 23.661c3.27 0 5.963-2.79 5.963-6.06 0-3.367-2.693-6.06-5.963-6.06h-56.171c-12.985 0-19.621 5.964-27.604 13.179-3.655 3.174-7.118 7.118-11.83 10.87-3.174 2.501-6.829 3.367-11.157 2.405-6.25-1.347-15.294-10.197-20.296-14.141-3.751-2.982-8.753-8.946-13.562-8.754-10.003 0.385-15.678 20.874-34.722 22.317-13.947 0.962-31.837-16.256-40.205-24.241-2.501-2.501-1.635-5.771 0.769-7.022 2.597-1.635 5.579-0.77 7.598 1.154 3.174 3.271 6.252 6.253 9.234 9.042 4.809 4.04 15.197 13.467 22.026 13.082 11.542-0.672 18.852-16.833 29.336-20.681 1.731-0.577 3.559-0.962 5.579-0.866 4.809 0.192 9.618 5.002 13.369 7.984 5.002 3.944 12.023 10.197 18.179 11.543 4.424 0.962 6.252-0.289 9.33-2.79 6.637-5.195 10.965-10.293 16.351-13.852 5.579-3.559 10.388-4.81 17.698-4.81h68.674c7.021 0 12.696 5.675 12.696 12.698 0 7.022-5.675 12.794-12.696 12.794h-39.531-8.56c-3.943 0-7.214 3.271-7.214 7.215v25.011c0 3.174-2.597 5.772-5.771 5.772s-5.867-2.597-5.867-5.772v-29.724z" fill-rule="evenodd" clip-rule="evenodd"/>
    <g id="g4160">
     <path id="path4162" fill="#808080" d="m3.668 40.526h0.992l1.976 6.97 2.773-6.97h0.201l2.74 6.97 2.009-6.97h0.986l-2.779 9.673h-0.18l-2.87-7.319-2.926 7.319h-0.181l-2.741-9.673z"/>
    </g>
    <g id="g4164">
     <path id="path4166" fill="#808080" d="m24.282 42.86c1.103 0 2.016 0.399 2.74 1.197 0.659 0.728 0.988 1.589 0.988 2.584 0 1-0.348 1.873-1.044 2.62-0.696 0.748-1.591 1.122-2.684 1.122-1.098 0-1.995-0.374-2.69-1.122-0.696-0.747-1.044-1.62-1.044-2.62 0-0.99 0.329-1.85 0.988-2.577 0.724-0.803 1.64-1.204 2.746-1.204zm-0.003 0.901c-0.766 0-1.423 0.282-1.973 0.848s-0.825 1.25-0.825 2.052c0 0.518 0.125 1 0.376 1.447s0.589 0.792 1.016 1.035 0.896 0.365 1.406 0.365 0.979-0.122 1.405-0.365 0.765-0.588 1.016-1.035c0.25-0.447 0.376-0.93 0.376-1.447 0-0.802-0.276-1.485-0.828-2.052-0.551-0.566-1.208-0.848-1.969-0.848z"/>
    </g>
    <g id="g4168">
     <path id="path4170" fill="#808080" d="m37.73 43.044h0.92v1.282c0.368-0.491 0.776-0.858 1.223-1.102 0.447-0.243 0.934-0.365 1.46-0.365 0.535 0 1.009 0.136 1.423 0.408 0.414 0.271 0.72 0.638 0.917 1.098 0.197 0.461 0.295 1.178 0.295 2.15v3.683h-0.92v-3.413c0-0.824-0.034-1.374-0.102-1.65-0.107-0.474-0.312-0.829-0.614-1.068-0.303-0.239-0.697-0.358-1.184-0.358-0.557 0-1.056 0.184-1.496 0.553-0.441 0.368-0.731 0.824-0.872 1.367-0.088 0.355-0.131 1.004-0.131 1.946v2.624h-0.92v-7.155z"/>
    </g>
    <g id="g4172">
     <path id="path4174" fill="#808080" d="m58.339 40.283v9.916h-0.907v-1.229c-0.386 0.469-0.818 0.822-1.298 1.059s-1.005 0.355-1.575 0.355c-1.013 0-1.877-0.367-2.594-1.102-0.716-0.734-1.075-1.628-1.075-2.68 0-1.03 0.361-1.911 1.085-2.644 0.723-0.732 1.593-1.099 2.61-1.099 0.587 0 1.119 0.125 1.595 0.375s0.893 0.625 1.252 1.125v-4.077h0.907zm-3.679 3.464c-0.512 0-0.985 0.126-1.418 0.378s-0.778 0.605-1.034 1.061-0.384 0.938-0.384 1.445c0 0.504 0.129 0.985 0.387 1.445s0.605 0.817 1.041 1.073c0.436 0.257 0.903 0.385 1.402 0.385 0.503 0 0.98-0.127 1.432-0.381 0.451-0.254 0.798-0.598 1.041-1.031 0.243-0.434 0.364-0.922 0.364-1.465 0-0.827-0.272-1.52-0.817-2.075-0.546-0.556-1.217-0.835-2.014-0.835z"/>
    </g>
    <g id="g4176">
     <path id="path4178" fill="#808080" d="m70.688 47.825 0.776 0.408c-0.254 0.499-0.548 0.902-0.882 1.21-0.333 0.307-0.708 0.54-1.125 0.7s-0.888 0.24-1.415 0.24c-1.167 0-2.079-0.383-2.737-1.147-0.658-0.766-0.987-1.63-0.987-2.595 0-0.907 0.278-1.716 0.836-2.427 0.706-0.902 1.651-1.354 2.836-1.354 1.22 0 2.194 0.463 2.922 1.388 0.518 0.653 0.781 1.469 0.79 2.446h-6.437c0.018 0.831 0.283 1.513 0.796 2.044 0.514 0.531 1.148 0.797 1.903 0.797 0.364 0 0.718-0.063 1.063-0.19 0.344-0.126 0.637-0.294 0.879-0.504 0.24-0.211 0.501-0.549 0.782-1.016zm0-1.927c-0.123-0.49-0.302-0.883-0.537-1.177s-0.545-0.53-0.932-0.71-0.792-0.27-1.218-0.27c-0.702 0-1.306 0.226-1.81 0.677-0.369 0.329-0.647 0.822-0.836 1.479h5.333z"/>
    </g>
    <g id="g4180">
     <path id="path4182" fill="#808080" d="m88.351 40.526h1.926c1.105 0 1.85 0.048 2.236 0.145 0.552 0.136 1.003 0.415 1.354 0.839 0.351 0.423 0.526 0.954 0.526 1.594 0 0.645-0.171 1.177-0.513 1.595-0.342 0.419-0.813 0.7-1.414 0.846-0.438 0.104-1.258 0.157-2.459 0.157h-0.69v4.498h-0.966v-9.674zm0.967 0.946v3.282l1.637 0.02c0.662 0 1.146-0.061 1.453-0.181s0.548-0.315 0.723-0.584c0.175-0.27 0.263-0.57 0.263-0.902 0-0.324-0.088-0.62-0.263-0.89-0.175-0.269-0.406-0.46-0.693-0.574-0.287-0.113-0.757-0.171-1.411-0.171h-1.709z"/>
    </g>
    <g id="g4184">
     <path id="path4186" fill="#808080" d="m97.985 43.044h0.94v1.045c0.28-0.411 0.576-0.72 0.887-0.924 0.312-0.203 0.636-0.306 0.973-0.306 0.254 0 0.526 0.081 0.815 0.243l-0.48 0.776c-0.193-0.083-0.355-0.125-0.486-0.125-0.307 0-0.603 0.126-0.888 0.378s-0.502 0.644-0.651 1.174c-0.114 0.408-0.171 1.232-0.171 2.473v2.42h-0.94v-7.154z"/>
    </g>
    <g id="g4188">
     <path id="path4190" fill="#808080" d="m111.79 42.86c1.102 0 2.016 0.399 2.739 1.197 0.659 0.728 0.988 1.589 0.988 2.584 0 1-0.348 1.873-1.044 2.62-0.696 0.748-1.591 1.122-2.684 1.122-1.098 0-1.995-0.374-2.691-1.122-0.696-0.747-1.044-1.62-1.044-2.62 0-0.99 0.329-1.85 0.988-2.577 0.726-0.803 1.642-1.204 2.748-1.204zm-0.004 0.901c-0.765 0-1.423 0.282-1.973 0.848s-0.825 1.25-0.825 2.052c0 0.518 0.125 1 0.375 1.447 0.251 0.447 0.59 0.792 1.017 1.035s0.896 0.365 1.405 0.365c0.511 0 0.979-0.122 1.405-0.365s0.766-0.588 1.017-1.035 0.376-0.93 0.376-1.447c0-0.802-0.276-1.485-0.828-2.052-0.551-0.566-1.207-0.848-1.969-0.848z"/>
    </g>
    <g id="g4192">
     <path id="path4194" fill="#808080" d="m121.76 43.044h0.921v3.341c0 0.814 0.044 1.376 0.132 1.683 0.131 0.438 0.383 0.785 0.754 1.039 0.37 0.255 0.813 0.382 1.326 0.382s0.949-0.124 1.308-0.372c0.357-0.247 0.604-0.573 0.74-0.977 0.093-0.275 0.139-0.861 0.139-1.755v-3.341h0.94v3.512c0 0.986-0.115 1.729-0.346 2.229-0.229 0.5-0.576 0.892-1.039 1.174-0.462 0.283-1.042 0.425-1.738 0.425-0.697 0-1.279-0.142-1.746-0.425-0.467-0.282-0.815-0.677-1.045-1.184-0.23-0.506-0.346-1.268-0.346-2.285v-3.446z"/>
    </g>
    <g id="g4196">
     <path id="path4198" fill="#808080" d="m142.48 40.283v9.916h-0.907v-1.229c-0.386 0.469-0.818 0.822-1.299 1.059-0.479 0.236-1.005 0.355-1.574 0.355-1.013 0-1.877-0.367-2.594-1.102s-1.075-1.628-1.075-2.68c0-1.03 0.361-1.911 1.085-2.644 0.723-0.732 1.593-1.099 2.61-1.099 0.587 0 1.118 0.125 1.594 0.375s0.894 0.625 1.253 1.125v-4.077h0.907zm-3.679 3.464c-0.512 0-0.985 0.126-1.418 0.378-0.434 0.252-0.778 0.605-1.035 1.061-0.256 0.456-0.384 0.938-0.384 1.445 0 0.504 0.129 0.985 0.388 1.445 0.258 0.46 0.604 0.817 1.041 1.073 0.436 0.257 0.902 0.385 1.401 0.385 0.504 0 0.981-0.127 1.432-0.381s0.798-0.598 1.041-1.031 0.365-0.922 0.365-1.465c0-0.827-0.273-1.52-0.818-2.075-0.545-0.556-1.216-0.835-2.013-0.835z"/>
    </g>
   </g>
  </g>
  <g id="g4338" transform="matrix(2.7437 0 0 2.7437 849.1 -288.26)">
   <g id="g4276" fill="#808080">
    <path id="path4278" d="m59.824 24.59v-2.859h8.1v6.672c-0.762 0.762-1.906 1.334-3.431 1.906-1.429 0.477-2.954 0.762-4.479 0.762-2.001 0-3.621-0.381-5.146-1.144-1.429-0.667-2.478-1.811-3.24-3.145-0.667-1.334-1.048-2.859-1.048-4.48 0-1.811 0.381-3.336 1.239-4.67 0.762-1.43 2.001-2.478 3.526-3.145 1.144-0.572 2.668-0.858 4.479-0.858 2.287 0 4.098 0.477 5.432 1.334 1.239 0.858 2.097 2.097 2.478 3.622l-3.717 0.667c-0.286-0.858-0.762-1.525-1.525-2.001-0.762-0.477-1.62-0.667-2.668-0.667-1.715 0-2.954 0.381-3.907 1.334-1.048 0.953-1.525 2.383-1.525 4.194 0 2.001 0.572 3.526 1.525 4.575 0.953 0.953 2.287 1.43 3.812 1.43 0.858 0 1.62-0.095 2.382-0.381s1.429-0.667 2.001-1.048v-2.098h-4.288zm28.399 6.195h-4.098l-1.62-3.812h-7.433l-1.525 3.812h-4.003l7.243-16.87h3.907l7.529 16.87zm-6.957-6.672-2.573-6.29-2.478 6.29h5.051zm9.053 6.672v-16.679h3.717v13.82h9.339v2.859h-13.056zm15.629 0v-16.87h3.717v16.87h-3.717zm7.433 0v-16.679h3.812v13.82h9.339v2.859h-13.151zm15.82 0v-16.87h13.723v2.859h-10.006v3.717h9.339v2.859h-9.339v4.575h10.387v2.859h-14.104zm16.486-8.292c0-1.716 0.286-3.241 0.858-4.384 0.476-0.858 1.048-1.62 1.811-2.287 0.667-0.667 1.525-1.239 2.382-1.525 1.144-0.477 2.478-0.667 4.003-0.667 2.764 0 4.955 0.762 6.576 2.287 1.62 1.525 2.478 3.717 2.478 6.481 0 2.669-0.858 4.861-2.478 6.386s-3.812 2.287-6.576 2.287-4.955-0.762-6.576-2.287-2.478-3.622-2.478-6.291zm3.907-0.191c0 1.906 0.476 3.431 1.429 4.384 1.048 0.953 2.287 1.43 3.717 1.43 1.525 0 2.764-0.477 3.717-1.43s1.429-2.478 1.429-4.384-0.476-3.431-1.334-4.289c-0.953-0.953-2.192-1.43-3.812-1.43-1.525 0-2.764 0.477-3.717 1.43-0.952 0.954-1.429 2.383-1.429 4.289z"/>
    <path id="path4280" d="m59.633 24.59v-2.859-0.191h0.191 8.1 0.286v0.191 6.672 0.191h-0.095c-0.381 0.381-0.953 0.667-1.525 1.048-0.572 0.286-1.239 0.572-2.001 0.858s-1.525 0.477-2.287 0.572c-0.762 0.191-1.525 0.191-2.287 0.191-1.048 0-1.906-0.095-2.764-0.286s-1.715-0.477-2.478-0.858c-0.667-0.381-1.334-0.762-1.906-1.334s-1.048-1.239-1.429-1.906-0.667-1.43-0.858-2.192-0.286-1.62-0.286-2.383c0-0.953 0.191-1.716 0.381-2.573 0.191-0.762 0.476-1.525 0.953-2.192 0.381-0.762 0.858-1.334 1.525-1.906 0.572-0.572 1.334-0.953 2.097-1.334 0.572-0.286 1.334-0.572 2.097-0.667 0.762-0.191 1.525-0.191 2.478-0.191 2.287 0 4.193 0.381 5.527 1.334 0.667 0.477 1.239 0.953 1.62 1.62 0.476 0.667 0.762 1.334 0.953 2.097l0.095 0.286h-0.286l-3.717 0.667h-0.191l-0.095-0.191c-0.095-0.381-0.286-0.667-0.476-1.048-0.286-0.286-0.572-0.572-0.858-0.762-0.381-0.191-0.762-0.381-1.144-0.477-0.476-0.191-0.953-0.191-1.429-0.191-0.858 0-1.525 0.095-2.192 0.286-0.572 0.286-1.144 0.572-1.62 1.048-0.476 0.477-0.762 1.048-1.048 1.716-0.191 0.667-0.286 1.43-0.286 2.287 0 1.048 0.095 1.906 0.286 2.573 0.286 0.762 0.667 1.334 1.048 1.811 0.476 0.477 1.048 0.858 1.62 1.048 0.667 0.286 1.334 0.381 2.097 0.381 0.381 0 0.762 0 1.144-0.095 0.381-0.095 0.762-0.191 1.144-0.286 0.381-0.191 0.762-0.286 1.144-0.477 0.286-0.095 0.476-0.286 0.762-0.477v-1.811h-4.098-0.191v-0.19zm0.477-2.669v2.478h4.002 0.286v0.191 2.097 0.095l-0.095 0.095c-0.286 0.191-0.667 0.381-0.953 0.572-0.381 0.191-0.762 0.381-1.144 0.477-0.381 0.191-0.858 0.286-1.239 0.381-0.381 0-0.762 0.095-1.239 0.095-0.762 0-1.525-0.191-2.192-0.381-0.667-0.286-1.239-0.667-1.811-1.239-0.476-0.477-0.858-1.144-1.144-1.906s-0.381-1.716-0.381-2.764c0-0.953 0.095-1.716 0.381-2.478s0.667-1.334 1.144-1.811c0.476-0.477 1.144-0.858 1.811-1.144 0.667-0.191 1.429-0.381 2.287-0.381 0.572 0 1.048 0.095 1.525 0.191 0.476 0.191 0.858 0.286 1.239 0.572s0.762 0.572 0.953 0.953c0.286 0.286 0.476 0.572 0.572 0.953l3.335-0.572c-0.191-0.667-0.476-1.239-0.858-1.716-0.381-0.667-0.858-1.144-1.525-1.525-1.239-0.858-3.05-1.334-5.241-1.334-0.953 0-1.715 0.095-2.478 0.191-0.667 0.191-1.334 0.381-1.906 0.667-0.762 0.381-1.429 0.762-2.001 1.239-0.572 0.572-1.048 1.144-1.429 1.811-0.476 0.667-0.762 1.334-0.953 2.097-0.191 0.762-0.286 1.62-0.286 2.478 0 0.762 0.095 1.525 0.286 2.287 0.191 0.667 0.476 1.43 0.762 2.097 0.381 0.667 0.858 1.239 1.334 1.716 0.572 0.572 1.144 0.953 1.811 1.334 0.762 0.381 1.525 0.667 2.382 0.858 0.762 0.191 1.715 0.286 2.668 0.286 0.762 0 1.525-0.095 2.192-0.191 0.762-0.191 1.525-0.381 2.287-0.667 0.667-0.191 1.334-0.477 1.906-0.762 0.476-0.286 0.953-0.572 1.334-0.953v-6.386h-7.622zm28.113 9.055h-4.098-0.095l-0.095-0.095-1.525-3.717h-7.243l-1.429 3.717-0.095 0.095h-0.095-4.003-0.381l0.191-0.286 7.243-16.87v-0.095h0.191 3.907 0.191l0.095 0.095 7.433 16.87 0.095 0.286h-0.287zm-3.908-0.477h3.526l-7.243-16.298h-3.717l-7.051 16.298h3.526l1.525-3.622v-0.191h0.191 7.433 0.191v0.191l1.619 3.622zm-3.335-6.672-2.287-5.433-2.192 5.433h4.479zm-2.097-6.099 2.668 6.29 0.095 0.286h-0.381-5.051-0.381l0.191-0.286 2.478-6.29 0.191-0.477 0.19 0.477zm11.15 13.057v-16.679-0.286h0.286 3.717 0.286v0.286 13.629h9.053 0.286v0.191 2.859 0.191h-0.286-13.056-0.286v-0.191zm0.477-16.489v16.203h12.675v-2.383h-9.149-0.191v-0.191-13.629h-3.335zm15.247 16.489v-16.87-0.191h0.191 3.717 0.286v0.191 16.87 0.191h-0.286-3.717-0.191v-0.191zm0.382-16.584v16.298h3.335v-16.298h-3.335zm7.052 16.584v-16.679-0.286h0.191 3.812 0.191v0.286 13.629h9.149 0.191v0.191 2.859 0.191h-0.191-13.151-0.191v-0.191zm0.381-16.489v16.203h12.675v-2.383h-9.053-0.286v-0.191-13.629h-3.336zm15.343 16.489v-16.87-0.191h0.286 13.723 0.286v0.191 2.859 0.191h-0.286-9.72v3.336h9.053 0.191v0.191 2.859 0.191h-0.191-9.053v4.194h10.102 0.191v0.191 2.859 0.191h-0.191-14.104-0.286v-0.192zm0.476-16.584v16.298h13.723v-2.383h-10.197-0.191v-0.191-4.575-0.19h0.191 9.149v-2.383h-9.149-0.191v-0.286-3.717-0.191h0.191 9.816v-2.383h-13.342zm16.106 8.292c0-0.953 0.095-1.716 0.191-2.478 0.191-0.762 0.381-1.43 0.667-2.001 0.286-0.381 0.476-0.858 0.762-1.239s0.667-0.762 1.048-1.144c0.381-0.286 0.762-0.667 1.144-0.858 0.476-0.286 0.858-0.477 1.334-0.667 0.572-0.286 1.239-0.381 1.906-0.572 0.667-0.095 1.429-0.095 2.192-0.095 1.429 0 2.668 0.191 3.812 0.572 1.048 0.381 2.097 0.953 2.954 1.811 0.858 0.762 1.429 1.716 1.906 2.764 0.381 1.144 0.572 2.383 0.572 3.812 0 1.334-0.191 2.573-0.572 3.717-0.476 1.048-1.048 2.001-1.906 2.764-0.858 0.858-1.811 1.43-2.954 1.811-1.144 0.381-2.382 0.572-3.812 0.572-1.334 0-2.668-0.191-3.717-0.572-1.144-0.381-2.192-0.953-2.954-1.716-0.858-0.858-1.525-1.811-1.906-2.859-0.477-1.049-0.667-2.288-0.667-3.622zm0.667-2.383c-0.191 0.762-0.191 1.525-0.191 2.383 0 1.239 0.191 2.478 0.572 3.431 0.381 1.048 0.953 1.906 1.811 2.669 0.762 0.762 1.715 1.334 2.764 1.716 1.048 0.381 2.287 0.572 3.621 0.572 1.429 0 2.573-0.191 3.621-0.572 1.144-0.381 2.001-0.953 2.859-1.716 0.762-0.762 1.334-1.62 1.715-2.669 0.476-1.048 0.667-2.192 0.667-3.526s-0.191-2.573-0.667-3.622c-0.381-1.048-0.953-1.906-1.811-2.669-0.762-0.762-1.715-1.334-2.764-1.716-1.048-0.381-2.287-0.572-3.621-0.572-0.762 0-1.429 0.095-2.097 0.191-0.667 0.095-1.239 0.286-1.811 0.477-0.476 0.191-0.858 0.381-1.239 0.667-0.381 0.191-0.762 0.477-1.144 0.858-0.381 0.286-0.667 0.667-0.953 1.048s-0.477 0.762-0.762 1.144c-0.189 0.572-0.475 1.239-0.57 1.906zm3.621 2.192c0 0.953 0.191 1.811 0.381 2.478 0.286 0.667 0.572 1.239 1.048 1.716 0.477 0.477 0.953 0.858 1.62 1.048 0.572 0.286 1.239 0.381 1.906 0.381 0.762 0 1.429-0.095 2.001-0.381 0.572-0.191 1.144-0.572 1.62-1.048 0.381-0.477 0.762-1.048 0.953-1.716 0.286-0.667 0.381-1.525 0.381-2.478s-0.095-1.811-0.381-2.478c-0.191-0.667-0.476-1.239-0.953-1.716-0.476-0.477-0.953-0.762-1.525-1.048-0.667-0.191-1.334-0.286-2.097-0.286-0.667 0-1.429 0.095-2.001 0.286-0.572 0.286-1.144 0.572-1.525 1.048-0.476 0.477-0.858 1.048-1.048 1.716-0.189 0.763-0.38 1.525-0.38 2.478zm0 2.574c-0.286-0.667-0.381-1.525-0.381-2.573 0-0.953 0.095-1.811 0.381-2.573 0.191-0.762 0.572-1.43 1.048-1.906 0.572-0.477 1.144-0.858 1.715-1.144 0.667-0.191 1.429-0.381 2.192-0.381 0.858 0 1.525 0.191 2.192 0.381 0.667 0.286 1.239 0.667 1.715 1.144 0.477 0.477 0.858 1.144 1.144 1.906 0.191 0.667 0.381 1.525 0.381 2.573 0 0.953-0.191 1.906-0.381 2.573-0.286 0.762-0.667 1.43-1.144 2.001-0.476 0.477-1.048 0.858-1.715 1.144-0.667 0.191-1.334 0.381-2.192 0.381-0.762 0-1.429-0.191-2.097-0.381-0.667-0.286-1.239-0.667-1.715-1.239-0.571-0.477-0.952-1.144-1.143-1.906z"/>
    <path id="path4282" d="m165.7 25.352 3.717-0.381c0.191 1.144 0.667 1.906 1.334 2.478 0.667 0.477 1.525 0.762 2.668 0.762 1.239 0 2.192-0.286 2.764-0.667 0.572-0.477 0.953-1.048 0.953-1.62 0-0.477-0.191-0.762-0.381-1.048-0.286-0.286-0.762-0.572-1.429-0.762-0.381-0.095-1.429-0.381-2.954-0.667-2.001-0.477-3.431-1.048-4.193-1.716-1.144-0.953-1.715-2.097-1.715-3.431 0-0.858 0.286-1.62 0.762-2.383 0.572-0.762 1.334-1.334 2.287-1.716 1.048-0.381 2.287-0.572 3.717-0.572 2.287 0 4.098 0.477 5.241 1.43 1.144 0.953 1.811 2.192 1.811 3.717l-3.717 0.095c-0.191-0.858-0.477-1.43-1.048-1.811-0.477-0.381-1.334-0.572-2.382-0.572s-1.906 0.191-2.478 0.572c-0.476 0.286-0.667 0.572-0.667 1.048 0 0.381 0.191 0.762 0.572 1.048 0.476 0.381 1.62 0.667 3.431 1.144 1.906 0.381 3.24 0.762 4.098 1.144 0.858 0.477 1.525 1.048 2.001 1.716 0.572 0.762 0.762 1.62 0.762 2.669 0 0.953-0.286 1.906-0.858 2.764s-1.429 1.43-2.573 1.811c-1.048 0.477-2.382 0.667-4.003 0.667-2.382 0-4.193-0.477-5.432-1.525-1.24-0.953-2.002-2.383-2.288-4.194zm18.392 5.433v-16.87h3.812v7.434l7.529-7.434h5.051l-6.957 6.576 7.338 10.293h-4.86l-5.051-7.911-3.05 2.764v5.147h-3.812zm23.634 0v-7.148l-6.861-9.722h4.479l4.384 6.672 4.288-6.672h4.288l-6.861 9.817v7.053h-3.717z"/>
    <path id="path4284" d="m165.7 25.066 3.717-0.286h0.191v0.191c0.095 0.477 0.286 0.953 0.476 1.334 0.191 0.381 0.476 0.667 0.762 0.953 0.381 0.191 0.667 0.381 1.144 0.572 0.381 0.095 0.953 0.191 1.429 0.191 0.572 0 1.144-0.095 1.525-0.191 0.477-0.095 0.858-0.286 1.144-0.477 0.191-0.286 0.477-0.477 0.572-0.667 0.191-0.286 0.191-0.572 0.191-0.762 0-0.191 0-0.381-0.095-0.477 0-0.191-0.095-0.286-0.191-0.477-0.095-0.095-0.286-0.191-0.477-0.286s-0.476-0.191-0.762-0.381c-0.286 0-0.572-0.095-1.048-0.286-0.572-0.095-1.144-0.191-2.001-0.381-0.953-0.286-1.811-0.477-2.573-0.762-0.667-0.286-1.239-0.667-1.715-0.953-0.572-0.477-1.048-1.048-1.334-1.62s-0.476-1.239-0.476-2.001c0-0.381 0.095-0.858 0.286-1.239 0.095-0.477 0.286-0.858 0.572-1.239s0.667-0.762 1.048-1.048 0.858-0.572 1.429-0.762c0.477-0.191 1.048-0.381 1.715-0.477 0.572-0.095 1.239-0.095 2.001-0.095 1.144 0 2.192 0.095 3.145 0.286 0.858 0.286 1.62 0.667 2.192 1.144 0.667 0.477 1.144 1.048 1.429 1.716 0.381 0.667 0.476 1.334 0.572 2.192v0.191h-0.286l-3.717 0.191h-0.191v-0.191c-0.095-0.477-0.191-0.762-0.381-1.048-0.191-0.286-0.381-0.572-0.572-0.762-0.286-0.095-0.572-0.286-0.953-0.381s-0.762-0.095-1.334-0.095c-1.048 0-1.811 0.191-2.382 0.572-0.191 0.095-0.286 0.191-0.381 0.381-0.095 0.095-0.095 0.286-0.095 0.477 0 0.286 0.095 0.572 0.476 0.858 0.191 0.191 0.572 0.286 1.144 0.477s1.239 0.381 2.192 0.572c0.858 0.191 1.715 0.381 2.382 0.667 0.667 0.191 1.239 0.381 1.715 0.572s0.858 0.477 1.239 0.762c0.286 0.286 0.667 0.667 0.858 1.048 0.286 0.381 0.476 0.762 0.572 1.239 0.191 0.477 0.191 1.048 0.191 1.525 0 0.572 0 1.048-0.191 1.525s-0.381 0.953-0.667 1.334c-0.381 0.477-0.762 0.858-1.144 1.144-0.476 0.381-0.953 0.572-1.525 0.858-0.572 0.191-1.144 0.381-1.811 0.477-0.762 0.095-1.429 0.095-2.287 0.095-1.239 0-2.287-0.095-3.145-0.381-0.953-0.191-1.715-0.572-2.382-1.144-0.667-0.477-1.239-1.144-1.62-1.811-0.381-0.762-0.667-1.62-0.762-2.573v-0.286h0.189zm3.526 0.191-3.24 0.286c0.095 0.762 0.381 1.525 0.667 2.097 0.381 0.762 0.858 1.334 1.429 1.811 0.667 0.477 1.429 0.762 2.287 1.048 0.858 0.191 1.906 0.381 3.05 0.381 0.762 0 1.525-0.095 2.192-0.191 0.667-0.095 1.239-0.286 1.811-0.477 0.476-0.191 0.953-0.381 1.334-0.667 0.381-0.381 0.762-0.667 1.048-1.144 0.286-0.381 0.476-0.762 0.667-1.239 0.095-0.381 0.191-0.858 0.191-1.334 0-0.477-0.095-0.953-0.191-1.334-0.095-0.477-0.286-0.858-0.572-1.144-0.191-0.381-0.476-0.667-0.762-0.953-0.381-0.286-0.762-0.572-1.144-0.762-0.476-0.191-0.953-0.381-1.62-0.572s-1.525-0.381-2.382-0.572c-0.953-0.191-1.715-0.381-2.287-0.572s-0.953-0.381-1.239-0.572c-0.476-0.381-0.667-0.762-0.667-1.239 0-0.286 0.095-0.477 0.191-0.667 0.095-0.286 0.286-0.381 0.476-0.572 0.667-0.381 1.525-0.667 2.668-0.667 0.572 0 1.048 0.095 1.429 0.191 0.476 0.095 0.762 0.286 1.048 0.477s0.572 0.477 0.762 0.762c0.191 0.286 0.286 0.667 0.381 1.048l3.335-0.095c-0.095-0.667-0.191-1.239-0.476-1.811-0.286-0.572-0.762-1.144-1.334-1.525-0.476-0.477-1.239-0.858-2.097-1.048-0.858-0.286-1.811-0.381-2.954-0.381-0.762 0-1.334 0.095-2.001 0.191-0.572 0.095-1.144 0.191-1.62 0.381-0.476 0.191-0.858 0.477-1.239 0.762-0.381 0.191-0.667 0.572-0.953 0.858-0.286 0.381-0.476 0.762-0.572 1.144-0.095 0.381-0.191 0.762-0.191 1.144 0 0.667 0.095 1.239 0.381 1.811 0.286 0.477 0.667 1.048 1.239 1.43 0.381 0.381 0.953 0.667 1.62 0.858 0.667 0.286 1.525 0.572 2.478 0.762 0.858 0.191 1.429 0.381 2.001 0.477 0.476 0.095 0.858 0.191 1.048 0.286 0.381 0.095 0.667 0.191 0.858 0.381 0.286 0.095 0.476 0.286 0.572 0.381 0.191 0.191 0.286 0.381 0.381 0.572 0 0.191 0.095 0.381 0.095 0.667s-0.095 0.667-0.286 0.953-0.381 0.572-0.762 0.762c-0.286 0.286-0.667 0.477-1.144 0.572-0.477 0.191-1.048 0.191-1.715 0.191-0.572 0-1.048-0.095-1.525-0.191-0.476-0.095-0.953-0.381-1.334-0.572-0.286-0.286-0.572-0.667-0.858-1.144-0.188-0.381-0.379-0.762-0.474-1.239zm14.675 5.528v-16.87-0.191h0.191 3.812 0.191v0.191 6.958l7.243-7.053v-0.095h0.095 5.051 0.381 0.191 4.288 0.095v0.095l4.288 6.386 4.098-6.386v-0.095h0.191 4.288 0.381l-0.191 0.381-6.766 9.626v7.053 0.191h-0.286-3.717-0.191v-0.191-7.053l-6.861-9.626-6.861 6.386 7.243 10.103 0.286 0.381h-0.476-4.86-0.095l-0.095-0.095-4.955-7.72-2.764 2.573v5.051 0.191h-0.191-3.812-0.191v-0.191zm0.477-16.584v16.298h3.24v-4.861-0.095h0.095l3.05-2.859 0.191-0.191 0.095 0.286 5.146 7.72h4.288l-7.147-9.912-0.095-0.095 0.095-0.191 6.671-6.1h-4.479l-7.529 7.339-0.381 0.381v-0.572-7.148h-3.24zm23.539 9.436v6.862h3.335v-6.767-0.095l0.095-0.095 6.576-9.34h-3.812l-4.193 6.481-0.191 0.286-0.191-0.286-4.384-6.481h-3.812l6.576 9.34v0.095h0.001z"/>
    <g fill-rule="evenodd" clip-rule="evenodd">
     <path id="path4286" d="m29.996 22.302c0 12.39-4.479 22.398-10.006 22.398s-10.007-10.007-10.007-22.398c0-12.295 4.479-22.302 10.006-22.302s10.007 10.007 10.007 22.302zm-1.144 0c0 11.437-3.526 20.587-8.005 20.587-4.384 0-8.005-9.15-8.005-20.587 0-11.342 3.621-20.492 8.005-20.492 4.479 0.001 8.005 9.151 8.005 20.492z"/>
     <path id="path4288" d="m14.939 13.629c10.673-6.1 21.633-7.244 24.396-2.478 2.764 4.861-3.717 13.725-14.39 19.92-10.673 6.1-21.537 7.244-24.301 2.478-2.764-4.861 3.621-13.725 14.295-19.92zm0.571 1.049c9.816-5.719 19.631-7.244 21.823-3.431s-4.003 11.532-13.818 17.251-19.631 7.148-21.823 3.335 4.003-11.532 13.818-17.155z"/>
     <path id="path4290" d="m14.939 31.071c-10.674-6.195-17.059-15.059-14.295-19.92 2.764-4.765 13.628-3.622 24.301 2.478 10.673 6.195 17.154 15.059 14.39 19.92-2.764 4.765-13.723 3.622-24.396-2.478zm0.571-1.049c-9.815-5.623-16.01-13.343-13.818-17.155s12.008-2.383 21.823 3.336 16.01 13.343 13.818 17.251c-2.191 3.812-12.007 2.287-21.823-3.432z"/>
     <path id="path4292" d="m19.989 28.593c3.431 0 6.194-2.859 6.194-6.29s-2.764-6.195-6.194-6.195-6.29 2.764-6.29 6.195 2.86 6.29 6.29 6.29z"/>
     <path id="path4294" d="m19.989 16.965c2.954 0 5.337 2.383 5.337 5.337-0.762-1.906-2.668-3.241-4.86-3.241-3.05 0-5.432 2.383-5.432 5.433-0.286-0.667-0.476-1.334-0.476-2.192-0.001-2.954 2.477-5.337 5.431-5.337z"/>
     <path id="path4296" d="m25.326 22.874c-0.286 2.764-2.573 4.861-5.337 4.861-1.525 0-2.954-0.667-3.907-1.716 0.858 0.381 1.811 0.572 2.859 0.572 2.764 0 5.146-1.429 6.385-3.717z"/>
    </g>
    <path id="path4298" d="m222.5 7.434c0.858 0 1.62 0.381 2.192 0.953s0.953 1.334 0.953 2.097c0 0.858-0.381 1.62-0.953 2.192s-1.334 0.858-2.192 0.858c-0.762 0-1.525-0.286-2.097-0.858s-0.953-1.334-0.953-2.192c0-0.762 0.381-1.525 0.953-2.097s1.335-0.953 2.097-0.953zm1.906 1.239c-0.476-0.477-1.144-0.858-1.906-0.858-0.667 0-1.334 0.381-1.811 0.858-0.476 0.477-0.858 1.144-0.858 1.811 0 0.762 0.381 1.43 0.858 1.906 0.476 0.477 1.144 0.762 1.811 0.762 0.762 0 1.429-0.286 1.906-0.762 0.477-0.477 0.762-1.144 0.762-1.906 0-0.667-0.285-1.334-0.762-1.811z"/>
    <path id="path4300" d="m221.26 12.104v-3.145h1.429 0.667c0.095 0.095 0.286 0.191 0.381 0.381 0.095 0.095 0.095 0.286 0.095 0.477s-0.095 0.381-0.191 0.572c-0.191 0.095-0.381 0.286-0.667 0.286 0.095 0.095 0.191 0.095 0.191 0.191 0.191 0.095 0.286 0.191 0.381 0.381l0.572 0.858h-0.572l-0.381-0.667-0.381-0.381c0-0.095-0.095-0.191-0.191-0.286 0 0-0.095 0-0.191-0.095h-0.191-0.572v1.43h-0.379zm0.381-1.811h0.953 0.476c0.095-0.095 0.191-0.095 0.191-0.191 0.095-0.095 0.095-0.191 0.095-0.286 0-0.191 0-0.286-0.095-0.381-0.191-0.095-0.286-0.191-0.572-0.191h-1.048v1.049z"/>
   </g>
  </g>
  <g id="g4419" transform="matrix(2.5702 0 0 2.5702 1522.3 -279.37)">
   <g id="g4369" fill-rule="evenodd" clip-rule="evenodd" fill="#808080">
    <path id="path4371" d="m214.84 26.117c-4.383 0.091-3.835-2.009-2.739-5.296 0.913-2.74-0.365-2.192 5.022-2.009-0.64 1.095-1.918 5.753-2.283 7.305zm-126.36-0.091 0.274 1.278c0.639 2.192 2.831 2.1 5.478 2.1 2.465 0 4.565-0.274 5.661-1.918 0.548 0.639 0.365 1.552 2.557 1.826 1.37 0.274 3.196 0.091 4.565 0.091 3.744 0 4.931 0.457 7.944-1.187l-2.739 9.132c8.674 0.091 7.122 1.37 8.765-4.383l4.474-14.246c5.204 0 5.296 4.566 2.465 6.484-1.37 0.913-1.735 0.822-3.013 1.37-0.365 1.735 1.004 2.74 2.831 2.831l11.779-0.091c1.826-0.365 2.739-0.913 3.652-2.283-0.091 3.287 5.387 2.374 9.679 2.374 8.857 0 6.939-0.913 9.222-3.196 1.187 3.196 8.492 3.196 12.692 3.196 4.657 0 11.779 1.005 13.148-2.831-0.091 3.653 3.287 2.831 7.852 2.831 4.017 0 6.209 0.183 8.126-2.648 1.826 3.927 7.213 4.109 10.409 0.457 1.096 1.552 0.365 1.918 3.196 2.192 1.917 0.183 9.039 0.183 10.683-0.457 2.191-0.822 1.644-1.644 2.739-2.831l-8.765-0.091 2.374-7.945c0.365-1.096 0.822-1.552 0.913-2.831-5.113 0-10.957-0.457-15.522 0.731-2.1 0.548-3.926 2.009-4.931 3.287-1.461 2.009-1.552 3.653-1.37 6.758h-8.126c0.183-1.552 5.752-18.812 6.665-21.734h-7.305c-0.457 2.192-1.187 3.561-1.644 5.479-0.639 2.466-2.831 8.493-3.378 10.776l-1.644 5.479c-3.013-0.183-10.957 0-14.792 0-5.296 0-4.565-1.096-3.378-4.292 1.37-3.653-0.091-3.013 5.113-3.013l-1.826 4.292c3.835 0 6.574 0.731 7.944-1.004 1.552-2.009 0.822-4.931-1.917-5.844-4.474-1.552-11.413-1.187-15.157 1.278-1.096 0.731-2.191 2.283-2.648 3.561-0.822 2.1-0.457 3.105 0.274 5.022h-11.139c0.274-1.096 0.913-2.466 1.187-3.744 0.274-0.913 0.822-2.557 1.187-3.47 3.287-0.457 5.296-0.457 6.026-3.561h-4.931c0.365-1.735 2.1-6.301 2.374-8.31h-3.926c-1.735 4.657-3.926 6.575-8.126 8.127-1.096 0.365-1.644 2.466-1.826 3.561l3.013 0.091-2.191 7.305h-10.866c1.735-1.187 1.735-0.548 3.47-2.831 1.37-1.735 1.826-4.84-1.004-6.758-1.826-1.096-6.483-1.004-8.583-1.187 0.457-1.826 0.822-1.918 1.552-4.84h-7.122c-0.822 1.187-1.004 2.283-1.37 3.744-0.183 0.731-0.365 1.096-0.639 1.826-0.73 2.192-1.552 5.296-2.465 7.853-0.365 0.822-0.274 1.278-0.548 2.1l-7.944 0.091c0.183-1.461 3.287-9.132 3.652-10.776-8.583 0-7.305-0.731-8.309 2.466-0.274 1.096-0.73 1.735-1.004 2.831-0.365 1.187-0.73 1.735-1.004 2.831-0.183 0.639-0.274 0.822-0.457 1.461-0.639 1.552-0.548 1.187-4.748 1.187l3.926-10.776h-7.67c-0.183 1.096-1.278 4.292-1.826 5.479l-2.008 5.3z"/>
    <path id="path4373" d="m88.75 27.304-0.274-1.278h-7.944l-3.835-8.127c4.748-2.374 12.144-4.931 11.687-11.506-0.365-4.566-5.387-6.027-9.222-6.21-5.477-0.274-17.347-0.183-22.917-0.092l-3.378 5.388c4.931 0.183 21.092-0.457 24.288 0.365 1.461 0.365 2.465 1.826 2.283 3.561-0.457 4.566-7.487 6.21-11.139 7.579 1.004 1.826 3.378 7.762 4.931 10.41 0.73 1.37 1.004 1.644 2.648 1.918 1.096 0.183 2.374 0.274 3.744 0.274 2.831 0 5.752-0.274 6.574-0.639 2.372-0.912 1.641-2.008 2.554-1.643z"/>
    <path id="path4375" d="m56.154 29.404h7.305c0.183-0.822 0.639-1.644 0.822-2.466 0.913-3.561 5.844-17.624 5.661-18.903l-7.122 0.091c-0.275 0.458-6.484 19.635-6.666 21.278z"/>
    <path id="path4377" d="m0 4.749c0.548 0.274 12.509-0.274 14.792-0.091 5.296 0.548 10.866 6.849 16.435 7.397 4.291 0.365 14.883-4.931 16.618-7.214-1.187 0-4.474 1.37-5.844 1.826-9.131 2.921-11.596 2.191-17.987-1.736-4.291-2.648-6.757-4.109-11.961-3.561-3.014 0.182-10.044 2.1-12.053 3.379z"/>
    <path id="path4379" d="m0 13.88c0.548 0.183 12.509-0.365 14.792-0.091 5.296 0.548 10.866 6.849 16.435 7.305 4.291 0.365 14.883-4.84 16.618-7.214-1.187 0.091-4.474 1.461-5.844 1.826-9.131 2.922-11.596 2.283-17.987-1.735-4.291-2.557-6.757-4.018-11.961-3.561-3.014 0.274-10.044 2.101-12.053 3.47z"/>
    <path id="path4381" d="m0 22.921c0.548 0.274 12.509-0.365 14.792-0.091 5.296 0.548 10.866 6.849 16.435 7.305 4.291 0.457 14.883-4.84 16.618-7.123-1.187 0-4.474 1.37-5.844 1.826-9.131 2.922-11.596 2.192-17.987-1.735-4.291-2.648-6.757-4.109-11.961-3.653-3.014 0.275-10.044 2.192-12.053 3.471z"/>
   </g>
  </g>
  <g id="g4484" transform="matrix(1.8151 0 0 1.8151 2194.8 -269.6)">
   <g id="g4444" fill="#808080">
    <path id="path4446" d="m53.548 10.179h26.666c2.544 0 5.292 2.138 4.58 4.479l-5.089 17.712v0.204h24.325c1.628 0 2.952-1.323 2.952-2.952s-1.323-2.952-2.952-2.952h-13.74c-0.814 0-1.628-0.407-2.137-1.12s-0.611-1.527-0.407-2.341l2.443-8.55c0.611-2.341 2.036-4.479 4.478-4.479h16.386 7.939 42.34c2.443 0 5.191 2.138 4.478 4.479l-1.12 4.173h5.903l3.868-13.436c0.611-2.443 2.036-4.479 4.478-4.479h17.811c1.73 0 1.628 2.952 0.611 4.682h-8.142c-2.443 0-3.766 2.138-4.478 4.479l-2.544 8.754h5.191l1.221-4.173c0.611-2.341 2.036-4.479 4.478-4.479h26.666c2.544 0 5.191 2.138 4.58 4.479l-2.952 10.179h-21.882c-0.814 0-1.323 0.713-1.527 1.527l-1.12 4.479c-0.204 0.814 0.712 1.527 1.527 1.527h20.865c-0.611 2.443-2.036 4.581-4.478 4.581h-26.768c-2.443 0-5.191-2.138-4.478-4.581l2.544-8.958h-5.089l-3.868 13.538h-11.501c-2.544 0 0.407-2.138 1.12-4.581l2.544-8.958h-5.903l-2.544 8.958c-0.712 2.443 1.018 4.581-1.425 4.581h-11.806l0.305-1.934h-0.916c-0.814 1.221-1.934 1.934-3.46 1.934h-4.173-9.771c-2.544 0-5.191-2.138-4.478-4.581l2.137-7.736 0.305-0.916c0.712-2.443 2.036-4.581 4.478-4.581h6.005 12.824c1.221 0 2.137-0.916 2.137-2.239 0-1.221-0.916-2.138-2.137-2.138h-27.378-16.895-2.646c-1.73 0-3.155 1.425-3.155 3.156 0 1.73 1.425 3.156 3.155 3.156h14.147c0.916 0 1.628 0.407 2.137 1.018 0.611 0.713 0.712 1.527 0.509 2.443l-2.239 7.838c-0.712 2.443-2.036 4.581-4.58 4.581h-38.676-1.934-24.834c-2.443 0-5.191-2.138-4.478-4.581l5.052-17.712c0.61-2.342 2.035-4.48 4.478-4.48zm177.5-10.179c1.425 0 2.85 0.611 3.766 1.629 1.018 0.916 1.628 2.341 1.628 3.868 0 1.425-0.611 2.85-1.628 3.868-0.916 0.916-2.341 1.527-3.766 1.527-1.527 0-2.952-0.611-3.868-1.527-1.018-1.018-1.628-2.443-1.628-3.868 0-1.527 0.611-2.85 1.628-3.868 0.91-1.018 2.33-1.629 3.86-1.629zm-2.341 8.347v-5.802h2.544c0.509 0 0.916 0.102 1.221 0.204 0.204 0.102 0.407 0.305 0.611 0.509 0.102 0.305 0.204 0.611 0.204 0.916 0 0.407-0.102 0.713-0.407 1.018-0.204 0.305-0.611 0.407-1.221 0.509 0.204 0.102 0.407 0.204 0.509 0.305 0.204 0.204 0.407 0.509 0.611 0.814l1.018 1.527h-1.018l-0.712-1.221c-0.204-0.305-0.407-0.611-0.509-0.814-0.204-0.102-0.305-0.305-0.407-0.305-0.102-0.102-0.204-0.204-0.407-0.204h-0.407-0.814v2.545h-0.816zm0.814-3.257h1.628c0.305 0 0.611 0 0.814-0.102 0.102 0 0.305-0.204 0.407-0.305 0.102-0.204 0.102-0.305 0.102-0.509 0-0.305-0.102-0.509-0.204-0.713-0.204-0.102-0.509-0.204-1.018-0.204h-1.73v1.833zm4.886-2.952c-0.916-0.916-2.137-1.425-3.359-1.425-1.323 0-2.544 0.509-3.46 1.425-0.814 0.814-1.323 2.036-1.323 3.359s0.509 2.443 1.323 3.359c0.916 0.814 2.137 1.323 3.46 1.323 1.221 0 2.443-0.509 3.359-1.323 0.814-0.916 1.323-2.036 1.323-3.359s-0.509-2.545-1.323-3.359zm-212.21 34.608h-17.506c-2.544 0-5.292-2.138-4.58-4.479l7.736-27.076c0.712-2.341 2.036-4.479 4.478-4.479h40.508c2.544 0 1.221 6.006-1.221 6.006h-12.825-4.987-10.687c-1.527 0-2.443 1.425-2.748 2.85l-4.682 19.34c-0.407 1.425 1.221 2.748 2.748 2.748h6.514l2.952-10.28h-6.819l1.628-5.802h6.819 3.766 9.567c1.425 0-0.509 1.73-0.712 2.545l-4.071 14.047c-0.712 2.443 1.018 4.581-1.425 4.581h-10.483l0.407-1.934h-1.018c-0.713 1.119-1.832 1.933-3.359 1.933zm120.61-12.52h7.226l-2.137 5.598c-0.407 1.221-1.018 2.341-2.341 2.341h-4.376c-1.221 0-2.137-1.12-1.832-2.341l1.018-3.257c0.407-1.221 1.119-2.341 2.442-2.341zm60.456-9.772h8.346c2.443 0 2.443 1.934 1.73 4.072l-0.102 0.407h-13.74l0.102-0.407c0.713-2.138 1.12-4.072 3.664-4.072zm-139.84 0.204h5.7c1.527 0 3.155 1.323 2.748 2.748l-3.46 11.604c-0.407 1.527-1.221 2.748-2.748 2.748h-5.598c-1.527 0-3.155-1.221-2.748-2.748l3.46-11.604c0.407-1.425 1.221-2.748 2.646-2.748z" fill-rule="evenodd" clip-rule="evenodd" fill="#808080"/>
   </g>
  </g>
  <g id="g4600" transform="matrix(1.5556 0 0 1.5556 -94.916 -313.85)">
   <g id="g4504" fill-rule="evenodd" clip-rule="evenodd" fill="#808080">
    <path id="path4506" d="m21.686 66.418c-9.453 0-0.445-28.028 5.894-31.588 1.335-0.779 3.003-1.112 4.337-0.111 5.45 4.004-3.114 31.699-10.231 31.699zm-15.681-14.237c0 5.339-0.556 7.007 1.891 11.011 4.004 6.673 4.337 2.113 12.9 6.562 6.228 3.337 15.125-1.557 19.128-7.452 5.894-8.453 8.563-21.355 0.667-28.362-4.226-3.782-11.899-5.228-17.794-3.893-2.224 0.445-4.004 1.335-5.561 2.336-6.226 4.227-11.231 12.457-11.231 19.798z"/>
    <path id="path4508" d="m212.08 37.499c2.335 3.337 2.891 1.112-0.222 11.011l-5.672 18.463c-0.445 1.446-1.001 2.336-1.001 4.115h10.12c0.334-1.78 2.78-10.9 3.781-11.678l2.558 9.009c1.001 3.559-0.89 2.669 12.122 2.669 0-2.781-5.004-15.571-5.894-19.464 0.667-1.001 12.789-10.566 13.456-11.678-2.002 0-5.672-0.556-7.229 0.334l-8.23 6.785c-0.89 0.779-3.336 3.003-4.337 3.225l3.781-12.235c1.223-4.338 3.336-3.448-11.01-3.448-1.112 0-1.223 0.222-1.557 0.89-0.221 0.223-0.554 1.558-0.666 2.002z"/>
    <path id="path4510" d="m171.93 71.089c10.454 0 8.897 0.779 10.009-2.558l7.229-23.246 5.338-0.334c1.668 0 3.781 1.78 3.781 3.559 0 1.223-4.448 15.238-5.116 17.462-2.224 6.451-3.225 5.116 7.673 5.116 1.446 0 2.669-5.784 3.448-8.119 1.335-4.115 5.449-14.904 4.337-18.241-1.001-3.003-4.56-4.449-7.229-4.449h-16.57c-4.448 0-5.116 1.78-6.117 5.228l-7.34 23.802c-0.333 1.113-0.555 1.78 0.557 1.78z"/>
    <path id="path4512" d="m51.268 71.089c5.338 0 13.123 0.556 17.682-1.112 4.782-1.891 7.117-5.116 8.674-10.233 1.001-3.225 2.002-6.117 3.003-9.565 0.556-2.224 2.669-8.008 2.669-9.899-11.121 0-9.675-0.89-10.899 3.337l-3.892 12.123c-1.446 4.338-1.779 9.454-8.007 10.455l-5.227-0.111c0.111-2.113 7.451-23.579 7.562-25.804h-10.008l-2.78 8.564c-1.223 3.893-4.56 14.014-5.227 17.351-0.779 4.227 3.002 4.894 6.45 4.894z"/>
    <path id="path4514" d="m103.42 52.515h-10.342c0.778-1.668 1.891-6.896 2.447-8.119 1.779 0 2.224 0.334 4.115 0.334 6.783-0.112 4.892 3.002 3.78 7.785zm-24.238 12.234c0 4.004 4.893 6.34 9.119 6.34h18.906c1.446 0 1.891-3.225 1.891-4.671h-14.792c-7.673 0-3.114-7.007-2.558-9.454h20.463c0.334-1.668 0.89-3.114 1.446-4.894 0.667-2.002 1.335-3.782 1.335-5.784 0-2.669-3.67-6.006-6.561-6.006h-18.907c-4.448 0-4.226 4.56-6.228 11.011-0.667 2.002-1.446 4.56-2.113 6.673-0.445 1.224-2.001 5.673-2.001 6.785z"/>
    <path id="path4516" d="m113.43 63.192c0 2.669-0.334 4.894 2.78 6.673 3.114 1.891 15.569 1.223 20.129 1.223 1.112 0 1.112-0.89 1.335-1.891 0.222-1.112 0.556-1.557 0.556-2.781-3.336 0-12.122 0.556-13.679-0.779-0.334-0.222-1.001-1.446-1.001-1.78 0-1.668 5.449-17.128 5.561-19.13h16.125c0.334-0.779 1.112-3.448 1.223-4.449h-13.79c-15.792 0-11.566-1.891-17.682 17.24-0.333 1.114-1.557 4.451-1.557 5.674z"/>
    <path id="path4518" d="m140.79 71.089h8.786c1.335 0 1.446-1.78 2.113-3.893 0.556-1.668 1.001-3.114 1.446-4.783 1.001-3.337 1.779-6.229 2.891-9.454 1.891-5.784 3.225-10.9 5.116-16.572 0.89-2.447 0.222-1.78-8.452-1.78-1.335 0-2.002 3.782-2.669 6.117l-2.224 6.896c-0.445 1.78-1.001 3.003-1.557 4.783l-4.115 13.681c-0.445 1.335-1.335 3.559-1.335 5.005z"/>
    <path id="path4520" d="m156.81 71.089c10.899 0 8.563 0.779 9.898-3.337l3.448-11.567c0.778-2.781 1.557-5.228 2.335-7.786 0.556-1.78 2.224-6.34 2.224-8.119-12.233 0-8.786-1.668-11.788 7.341-2.113 6.229-4.115 13.903-6.117 20.02-0.334 0.89-1.668 3.448 0 3.448z"/>
    <path id="path4522" d="m161.81 28.935c0 9.343 10.343 12.346 15.569 7.341 8.786-8.564-2.891-22.022-12.567-13.792-1.446 1.224-3.002 3.893-3.002 6.451z"/>
    <path id="path4524" d="m0 68.865v2.558c3.336-0.779 4.782-1.335 9.342 0 1.557 0.556 2.558 1.112 3.892 1.891 1.223 0.779 2.002 1.446 3.225 2.336 7.896 5.45 9.453 6.785 19.684 6.785 2.669 0 11.343-2.002 11.343-4.115v-2.56c-4.448 0-8.452 1.112-13.234 0.111-7.34-1.557-10.12-3.67-16.014-6.006-5.449-2.113-12.9-3.781-18.238-1z"/>
    <path id="path4526" d="m147.35 12.029c0 1.668 2.224 3.003 4.671 0.556 0.778-0.779 1.335-1.223 2.224-1.891 1.223-1.001 3.336-2.447 4.671-3.225 13.012-7.007 26.913-2.336 33.919 9.009 2.224 3.67 2.669 6.785 4.56 6.785 4.782 0 0-7.452-1.112-9.232-0.778-1.112-1.446-2.002-2.335-3.003-3.448-4.227-2.335-2.447-4.337-4.449-0.111 0-0.111-0.111-0.222-0.111l-4.115-2.892c-8.563-4.56-18.683-4.894-27.358-0.222l-5.227 3.225c-1.224 0.89-5.339 3.893-5.339 5.45z"/>
    <path id="path4528" d="m156.14 19.592c0 1.668 1.557 3.003 3.003 2.002 0.89-0.445 0.778-0.89 1.557-1.668 6.561-6.673 18.461-6.006 23.243 3.003 0.778 1.446 0.89 3.893 3.003 3.893 4.004 0 0.778-5.784-0.222-7.341-1.001-1.557-1.779-2.669-3.336-3.893-1.779-1.335-2.335-1.78-4.448-2.781-11.123-5.227-22.8 3.894-22.8 6.785z"/>
    <path id="path4530" d="m154.58 76.761h5.116v4.115h-5.116v-4.115zm-1.557-1.223c-0.445 2.224-0.334 2.336-0.334 5.005s2.891 1.891 8.563 1.891c0.556-2.336 0.334-3.225 0.334-6.006 0-2.225-7.006-1.113-8.563-0.89z"/>
    <path id="path4532" d="m203.96 76.761h5.004v4.115h-5.004v-4.115zm-1.89-0.333c0 7.452-1.668 6.006 7.562 6.006 1.668 0 1.557-5.116 0.667-6.896-1.334-0.334-8.229-1.224-8.229 0.89z"/>
    <path id="path4534" d="m55.271 82.434h1.668c0.222-1.112 1.001-3.782 1.891-4.449 0 0.445 0.89 4.449 2.113 4.449 1.001 0 1.335-1.335 2.002-3.114 0.334-1.001 1.112-3.003 1.223-4.115-2.78 0-1.446 1.891-3.225 4.338-0.222-1.001-0.556-1.335-0.89-2.447-0.445-1.223-0.222-1.557-1.557-1.891-0.89 0.556-1.779 2.892-1.891 4.004h-0.667c-0.89-3.67-1.223-4.004-3.114-4.004 0.112 2.113 2.003 5.004 2.447 7.229z"/>
    <path id="path4536" d="m124.78 75.538c-1.223 5.005 0.556 4.004 5.672 4.004v1.335c-0.89 0-2.669 0-3.448-0.111-1.557-0.222-0.556-0.779-2.891-0.222 1.112 2.224-1.557 1.891 6.895 1.891 2.002 0 1.001-3.559 1.001-4.115-2.335-0.556-2.891-0.334-5.672-0.334v-1.223c5.561 0 4.115 1.001 6.005 0-1.112-2.002-1.446-1.557-5.338-1.557-1.112-0.002-1.223 0.221-2.224 0.332z"/>
    <path id="path4538" d="m141.79 75.538c-1.223 5.005 0.334 4.004 5.561 4.004v1.335c-0.89 0-2.669 0-3.448-0.111-1.557-0.222-0.445-0.779-2.78-0.222 0.556 2.447-0.111 1.891 6.895 1.891 1.668 0 2.113-4.449-0.89-4.449h-4.115v-1.223c4.782 0 4.448 0.667 5.894 0.334 0-2.447-1.446-1.891-5.56-1.891-0.556-0.002-1.224 0.109-1.557 0.332z"/>
    <path id="path4540" d="m113.77 75.538c-1.223 5.005 0.334 4.004 5.672 4.004v1.335h-3.781c-1.557 0 0.111-1.001-2.558-0.334 0.556 2.447 0 1.891 7.006 1.891 1.557 0 2.113-4.449-1.001-4.449h-4.115v-1.223c4.893 0 4.448 0.667 6.005 0.334 0-2.447-1.557-1.891-5.672-1.891-0.444-0.001-1.223 0.11-1.556 0.333z"/>
    <path id="path4542" d="m227.54 79.542c4.893 0 5.449-0.556 5.672 1.335-3.448 0-2.113 0.222-4.893-0.445-1.112-0.222-0.222-0.222-1.446 0.111 0 0.89 0.222 1.112 0.334 1.891 8.118 0 7.562 0.667 7.562-3.225 0-1.78-3.67-1.223-6.005-1.223v-1.223c0.89 0 2.669-0.111 3.448 0 2.335 0.334 0.111 0.89 2.558 0.334-0.222-2.447-2.002-1.891-5.672-1.891-2.559-0.002-2.337 2.668-1.558 4.336z"/>
    <path id="path4544" d="m73.843 76.761h4.115v1.557h-4.115v-1.557zm-1.89-0.667v6.34h1.891c0-2.669-0.111-1.891 0.334-2.892 1.446 0.111 1.779 1.001 2.558 1.891 1.335 1.335 1.223 1.001 3.67 1.001-0.556-0.89-1.668-1.223-2.78-2.892 2.558 0 2.558-1.001 1.891-4.004-2.335-0.556-3.781-0.334-6.561-0.334-0.781 0-1.003 0.223-1.003 0.89z"/>
    <path id="path4546" d="m82.963 76.094v6.34h7.562v-1.557h-5.672v-1.335h3.114v-1.557h-3.114v-1.223c5.004 0 5.227 0.445 5.672-1.001-0.334-0.445 0-0.556-1.001-0.556-4.115-0.001-6.561-0.668-6.561 0.889z"/>
    <path id="path4548" d="m103.09 76.094v6.34h7.229v-1.557h-5.338v-1.335h3.114v-1.557h-3.114v-1.223h5.338v-1.557c-4.338-0.001-7.229-0.668-7.229 0.889z"/>
    <path id="path4550" d="m214.64 82.434h1.557v-4.449c3.67 2.447 4.004 4.449 6.673 4.449v-7.23c-2.113 0-1.668 0.222-1.668 4.671l-3.003-2.558c-1.557-1.446-1.891-2.113-3.559-2.113v7.23z"/>
    <path id="path4552" d="m175.04 76.094c0 7.563-1.223 6.34 6.895 6.34 1.779 0 1.335-3.893 1.335-6.34 0-1.112-0.667-0.89-1.891-0.89v5.672h-4.448c0-3.782 0.556-5.672-0.89-5.672-0.779 0-1.001 0.223-1.001 0.89z"/>
    <polygon id="polygon4554" points="193.95 75.204 185.72 75.204 185.72 76.761 188.84 76.761 188.84 82.434 190.72 82.434 190.72 76.761 193.95 76.761"/>
    <path id="path4556" d="m93.639 76.094v6.34h7.229c0-2.002 0.222-1.557-5.338-1.557 0-3.782 0.556-5.672-0.89-5.672-0.779-0.001-1.001 0.222-1.001 0.889z"/>
    <path id="path4558" d="m165.26 76.094v6.34h7.229c0-2.002 0.222-1.557-5.338-1.557v-5.672c-1.224-0.001-1.891-0.223-1.891 0.889z"/>
    <path id="path4560" d="m196.06 76.094v6.34h1.891v-7.23h-0.89c-0.778 0-1.001 0.223-1.001 0.89z"/>
    <path id="path4562" d="m66.615 76.094v6.34h1.891v-6.34c0-0.667-0.222-0.89-0.89-0.89-0.779 0-1.001 0.223-1.001 0.89z"/>
   </g>
  </g>
 </g>
</svg>
