<svg xmlns="http://www.w3.org/2000/svg" xmlns:xlink="http://www.w3.org/1999/xlink" viewBox="0 0 64 64" version="1.1" width="64" height="64">
<g id="surface1">
<path style=" fill:#8B8E98;" d="M 47 9 L 47 57 C 47 59.210938 45.210938 61 43 61 L 21 61 C 18.789063 61 17 59.210938 17 57 L 17 9 C 17 6.789063 18.789063 5 21 5 L 43 5 C 45.210938 5 47 6.789063 47 9 Z "/>
<path style=" fill:#F9E3AE;" d="M 47 11 L 49 11 C 50.105469 11 51 11.894531 51 13 L 51 53 C 51 54.105469 50.105469 55 49 55 L 47 55 Z "/>
<path style=" fill:#F9E3AE;" d="M 17 55 L 15 55 C 13.894531 55 13 54.105469 13 53 L 13 13 C 13 11.894531 13.894531 11 15 11 L 17 11 Z "/>
<path style=" fill:#989BA3;" d="M 47 20.191406 L 47 26.621094 L 17 56.609375 L 17 50.179688 Z "/>
<path style=" fill:#989BA3;" d="M 47 30.910156 L 47 47 L 32.941406 61 L 21 61 C 19.90625 61.003906 18.859375 60.554688 18.109375 59.761719 Z "/>
<path style=" fill:#989BA3;" d="M 47 10.550781 L 47 15.910156 L 17.121094 45.800781 L 17.121094 40.441406 Z "/>
<path style=" fill:#8B8E98;" d="M 26.414063 11.589844 C 27.195313 12.371094 27.195313 13.636719 26.414063 14.417969 C 25.632813 15.199219 24.367188 15.199219 23.585938 14.417969 C 22.804688 13.636719 22.804688 12.371094 23.585938 11.589844 C 24.367188 10.808594 25.632813 10.808594 26.414063 11.589844 Z "/>
<path style=" fill:#9FDDFF;" d="M 27 13 C 27 14.105469 26.105469 15 25 15 C 23.894531 15 23 14.105469 23 13 C 23 11.894531 23.894531 11 25 11 C 26.105469 11 27 11.894531 27 13 Z "/>
<path style=" fill:#8D6C9F;" d="M 57 22 C 57.550781 22 58 21.550781 58 21 C 58 20.449219 57.550781 20 57 20 L 52 20 L 52 16 L 57 16 C 57.550781 16 58 15.550781 58 15 C 58 14.449219 57.550781 14 57 14 L 52 14 L 52 13 C 52 11.34375 50.65625 10 49 10 L 48 10 L 48 9 C 48 6.238281 45.761719 4 43 4 L 21 4 C 18.238281 4 16 6.238281 16 9 L 16 10 L 15 10 C 13.34375 10 12 11.34375 12 13 L 12 14 L 7 14 C 6.449219 14 6 14.449219 6 15 C 6 15.550781 6.449219 16 7 16 L 12 16 L 12 20 L 7 20 C 6.449219 20 6 20.449219 6 21 C 6 21.550781 6.449219 22 7 22 L 12 22 L 12 26 L 7 26 C 6.449219 26 6 26.449219 6 27 C 6 27.550781 6.449219 28 7 28 L 12 28 L 12 32 L 7 32 C 6.449219 32 6 32.449219 6 33 C 6 33.550781 6.449219 34 7 34 L 12 34 L 12 38 L 7 38 C 6.449219 38 6 38.449219 6 39 C 6 39.550781 6.449219 40 7 40 L 12 40 L 12 44 L 7 44 C 6.449219 44 6 44.449219 6 45 C 6 45.550781 6.449219 46 7 46 L 12 46 L 12 50 L 7 50 C 6.449219 50 6 50.449219 6 51 C 6 51.550781 6.449219 52 7 52 L 12 52 L 12 53 C 12 54.65625 13.34375 56 15 56 L 16 56 L 16 57 C 16 59.761719 18.238281 62 21 62 L 43 62 C 45.761719 62 48 59.761719 48 57 L 48 56 L 49 56 C 50.65625 56 52 54.65625 52 53 L 52 52 L 57 52 C 57.550781 52 58 51.550781 58 51 C 58 50.449219 57.550781 50 57 50 L 52 50 L 52 46 L 57 46 C 57.550781 46 58 45.550781 58 45 C 58 44.449219 57.550781 44 57 44 L 52 44 L 52 40 L 57 40 C 57.550781 40 58 39.550781 58 39 C 58 38.449219 57.550781 38 57 38 L 52 38 L 52 34 L 57 34 C 57.550781 34 58 33.550781 58 33 C 58 32.449219 57.550781 32 57 32 L 52 32 L 52 28 L 57 28 C 57.550781 28 58 27.550781 58 27 C 58 26.449219 57.550781 26 57 26 L 52 26 L 52 22 Z M 15 54 C 14.449219 54 14 53.550781 14 53 L 14 13 C 14 12.449219 14.449219 12 15 12 L 16 12 L 16 54 Z M 46 57 C 46 58.65625 44.65625 60 43 60 L 21 60 C 19.34375 60 18 58.65625 18 57 L 18 9 C 18 7.34375 19.34375 6 21 6 L 43 6 C 44.65625 6 46 7.34375 46 9 Z M 50 53 C 50 53.550781 49.550781 54 49 54 L 48 54 L 48 12 L 49 12 C 49.550781 12 50 12.449219 50 13 Z "/>
<path style=" fill:#FAEFDE;" d="M 27 54 C 26.449219 54 26 54.449219 26 55 L 26 57 C 26 57.550781 26.449219 58 27 58 C 27.550781 58 28 57.550781 28 57 L 28 55 C 28 54.449219 27.550781 54 27 54 Z "/>
<path style=" fill:#FAEFDE;" d="M 22 54 C 21.449219 54 21 54.449219 21 55 L 21 57 C 21 57.550781 21.449219 58 22 58 C 22.550781 58 23 57.550781 23 57 L 23 55 C 23 54.449219 22.550781 54 22 54 Z "/>
<path style=" fill:#FAEFDE;" d="M 32 54 C 31.449219 54 31 54.449219 31 55 L 31 57 C 31 57.550781 31.449219 58 32 58 C 32.550781 58 33 57.550781 33 57 L 33 55 C 33 54.449219 32.550781 54 32 54 Z "/>
<path style=" fill:#FAEFDE;" d="M 42 54 C 41.449219 54 41 54.449219 41 55 L 41 57 C 41 57.550781 41.449219 58 42 58 C 42.550781 58 43 57.550781 43 57 L 43 55 C 43 54.449219 42.550781 54 42 54 Z "/>
<path style=" fill:#FAEFDE;" d="M 37 54 C 36.449219 54 36 54.449219 36 55 L 36 57 C 36 57.550781 36.449219 58 37 58 C 37.550781 58 38 57.550781 38 57 L 38 55 C 38 54.449219 37.550781 54 37 54 Z "/>
<path style=" fill:#8D6C9F;" d="M 22.878906 15.121094 C 23.894531 16.132813 25.480469 16.285156 26.667969 15.492188 C 27.859375 14.695313 28.320313 13.167969 27.769531 11.847656 C 27.222656 10.523438 25.816406 9.773438 24.414063 10.054688 C 23.007813 10.335938 22 11.570313 22 13 C 22 13.796875 22.316406 14.558594 22.878906 15.121094 Z M 24.289063 12.289063 C 24.574219 12.003906 25.007813 11.917969 25.378906 12.070313 C 25.753906 12.226563 26 12.589844 26 12.996094 C 26 13.398438 25.753906 13.765625 25.378906 13.917969 C 25.007813 14.074219 24.574219 13.988281 24.289063 13.699219 C 23.902344 13.308594 23.902344 12.679688 24.289063 12.289063 Z "/>
<path style=" fill:#FAEFDE;" d="M 29 46 L 24 46 C 23.449219 46 23 46.449219 23 47 C 23 47.550781 23.449219 48 24 48 L 29 48 C 29.550781 48 30 47.550781 30 47 C 30 46.449219 29.550781 46 29 46 Z "/>
<path style=" fill:#FAEFDE;" d="M 35 46 L 33 46 C 32.449219 46 32 46.449219 32 47 C 32 47.550781 32.449219 48 33 48 L 35 48 C 35.550781 48 36 47.550781 36 47 C 36 46.449219 35.550781 46 35 46 Z "/>
<path style=" fill:#FAEFDE;" d="M 40 42 L 24 42 C 23.449219 42 23 42.449219 23 43 C 23 43.550781 23.449219 44 24 44 L 40 44 C 40.550781 44 41 43.550781 41 43 C 41 42.449219 40.550781 42 40 42 Z "/>
<path style=" fill:#DDDDDD;" d="M 34.5 11 L 35.738281 13.261719 L 38 14.5 L 35.738281 15.738281 L 34.5 18 L 33.261719 15.738281 L 31 14.5 L 33.261719 13.261719 Z "/>
<path style=" fill:#DDDDDD;" d="M 23.578125 25 L 24.441406 26.558594 L 26 27.421875 L 24.441406 28.269531 L 23.578125 29.839844 L 22.730469 28.269531 L 21.160156 27.421875 L 22.730469 26.558594 Z "/>
<path style=" fill:#DDDDDD;" d="M 36.648438 34.699219 L 37.230469 35.769531 L 38.300781 36.351563 L 37.230469 36.941406 L 36.648438 38 L 36.058594 36.941406 L 35 36.351563 L 36.058594 35.769531 Z "/>
</g>
</svg>