<svg xmlns="http://www.w3.org/2000/svg" xmlns:xlink="http://www.w3.org/1999/xlink" viewBox="0 0 64 64" version="1.1" width="64" height="64">
<g id="surface1">
<path style=" fill:#C5E4FA;" d="M 7 12 L 63 12 L 63 42 L 7 42 Z "/>
<path style=" fill:#E3F2FF;" d="M 48.839844 41.089844 L 63 26.929688 L 63 13 L 60.859375 13 L 32.769531 41.089844 Z "/>
<path style=" fill:#E3F2FF;" d="M 22.050781 41.089844 L 28.480469 41.089844 L 56.570313 13 L 50.140625 13 Z "/>
<path style=" fill:#E3F2FF;" d="M 17.769531 41.089844 L 45.859375 13 L 40.5 13 L 12.410156 41.089844 Z "/>
<path style=" fill:#FFF8F8;" d="M 31.5 17 L 32.738281 19.261719 L 35 20.5 L 32.738281 21.738281 L 31.5 24 L 30.261719 21.738281 L 28 20.5 L 30.261719 19.261719 Z "/>
<path style=" fill:#FFF8F8;" d="M 53.421875 15.160156 L 54.269531 16.730469 L 55.839844 17.578125 L 54.269531 18.441406 L 53.421875 20 L 52.558594 18.441406 L 51 17.578125 L 52.558594 16.730469 Z "/>
<path style=" fill:#FFF8F8;" d="M 45.648438 34.699219 L 46.230469 35.769531 L 47.300781 36.351563 L 46.230469 36.941406 L 45.648438 38 L 45.058594 36.941406 L 44 36.351563 L 45.058594 35.769531 Z "/>
<path style=" fill:#A0AECB;" d="M 41 47.230469 L 31 47.230469 L 28 57.230469 L 44 57.230469 Z "/>
<path style=" fill:#CFD9ED;" d="M 8 41 L 8 45 C 8 46.105469 8.894531 47 10 47 L 62 47 C 63.105469 47 64 46.105469 64 45 L 64 41 Z "/>
<path style=" fill:#C2CDE7;" d="M 7 43.230469 L 7 45.230469 C 7 46.335938 7.894531 47.230469 9 47.230469 L 61 47.230469 C 62.105469 47.230469 63 46.335938 63 45.230469 L 63 43.230469 Z "/>
<path style=" fill:#C2CDE7;" d="M 7 13 L 7 11 C 7 9.894531 7.894531 9 9 9 L 61 9 C 62.105469 9 63 9.894531 63 11 L 63 13 Z "/>
<path style=" fill:#ACB7D0;" d="M 5 19 L 17 19 C 19.210938 19 21 20.789063 21 23 L 21 53 C 21 55.210938 19.210938 57 17 57 L 5 57 C 2.789063 57 1 55.210938 1 53 L 1 23 C 1 20.789063 2.789063 19 5 19 Z "/>
<path style=" fill:#C5E4FA;" d="M 1 25.070313 L 21 25.070313 L 21 49 L 1 49 Z "/>
<path style=" fill:#E3F2FF;" d="M 21 30 L 21 45 L 17 49 L 2 49 Z "/>
<path style=" fill:#E3F2FF;" d="M 21 25.070313 L 21 26.011719 L 1 46 L 1 40 L 15.929688 25.070313 Z "/>
<path style=" fill:#E3F2FF;" d="M 11.929688 25.070313 L 1 36 L 1 31 L 6.929688 25.070313 Z "/>
<path style=" fill:#8D6C9F;" d="M 61 8 L 9 8 C 7.34375 8 6 9.34375 6 11 L 6 18 L 5 18 C 2.238281 18 0 20.238281 0 23 L 0 53 C 0 55.761719 2.238281 58 5 58 L 17 58 C 19.761719 58 22 55.761719 22 53 L 22 48 L 29.660156 48 L 27.261719 56 L 25 56 C 24.449219 56 24 56.449219 24 57 C 24 57.550781 24.449219 58 25 58 L 47 58 C 47.550781 58 48 57.550781 48 57 C 48 56.449219 47.550781 56 47 56 L 44.738281 56 L 42.339844 48 L 61 48 C 62.65625 48 64 46.65625 64 45 L 64 11 C 64 9.34375 62.65625 8 61 8 Z M 9 10 L 61 10 C 61.550781 10 62 10.449219 62 11 L 62 12 L 8 12 L 8 11 C 8 10.449219 8.449219 10 9 10 Z M 5 20 L 17 20 C 18.65625 20 20 21.34375 20 23 L 20 24 L 2 24 L 2 23 C 2 21.34375 3.34375 20 5 20 Z M 20 42 L 20 48 L 2 48 L 2 26 L 20 26 Z M 17 56 L 5 56 C 3.34375 56 2 54.65625 2 53 L 2 50 L 20 50 L 20 53 C 20 54.65625 18.65625 56 17 56 Z M 42.660156 56 L 29.339844 56 L 31.738281 48 L 40.25 48 Z M 61 46 L 22 46 L 22 42 L 31.078125 42 C 31.632813 42 32.078125 41.550781 32.078125 41 C 32.078125 40.449219 31.632813 40 31.078125 40 L 22 40 L 22 30 C 22.550781 30 23 29.550781 23 29 L 23 27 C 23 26.449219 22.550781 26 22 26 L 22 23 C 22 20.238281 19.761719 18 17 18 L 8 18 L 8 14 L 62 14 L 62 26 C 61.449219 26 61 26.449219 61 27 L 61 29 C 61 29.550781 61.449219 30 62 30 L 62 40 L 41.078125 40 C 40.527344 40 40.078125 40.449219 40.078125 41 C 40.078125 41.550781 40.527344 42 41.078125 42 L 62 42 L 62 45 C 62 45.550781 61.550781 46 61 46 Z "/>
<path style=" fill:#8D6C9F;" d="M 37 40 L 35.078125 40 C 34.527344 40 34.078125 40.449219 34.078125 41 C 34.078125 41.550781 34.527344 42 35.078125 42 L 37 42 C 37.550781 42 38 41.550781 38 41 C 38 40.449219 37.550781 40 37 40 Z "/>
<path style=" fill:#8D6C9F;" d="M 37 26 C 36.449219 26 36 26.449219 36 27 L 36 29 C 36 29.550781 36.449219 30 37 30 C 37.550781 30 38 29.550781 38 29 L 38 27 C 38 26.449219 37.550781 26 37 26 Z "/>
<path style=" fill:#8D6C9F;" d="M 27 26 C 26.449219 26 26 26.449219 26 27 L 26 29 C 26 29.550781 26.449219 30 27 30 C 27.550781 30 28 29.550781 28 29 L 28 27 C 28 26.449219 27.550781 26 27 26 Z "/>
<path style=" fill:#8D6C9F;" d="M 32 26 C 31.449219 26 31 26.449219 31 27 L 31 29 C 31 29.550781 31.449219 30 32 30 C 32.550781 30 33 29.550781 33 29 L 33 27 C 33 26.449219 32.550781 26 32 26 Z "/>
<path style=" fill:#8D6C9F;" d="M 42 30 C 42.550781 30 43 29.550781 43 29 L 43 27 C 43 26.449219 42.550781 26 42 26 C 41.449219 26 41 26.449219 41 27 L 41 29 C 41 29.550781 41.449219 30 42 30 Z "/>
<path style=" fill:#8D6C9F;" d="M 57 30 C 57.550781 30 58 29.550781 58 29 L 58 27 C 58 26.449219 57.550781 26 57 26 C 56.449219 26 56 26.449219 56 27 L 56 29 C 56 29.550781 56.449219 30 57 30 Z "/>
<path style=" fill:#8D6C9F;" d="M 47 30 C 47.550781 30 48 29.550781 48 29 L 48 27 C 48 26.449219 47.550781 26 47 26 C 46.449219 26 46 26.449219 46 27 L 46 29 C 46 29.550781 46.449219 30 47 30 Z "/>
<path style=" fill:#8D6C9F;" d="M 52 30 C 52.550781 30 53 29.550781 53 29 L 53 27 C 53 26.449219 52.550781 26 52 26 C 51.449219 26 51 26.449219 51 27 L 51 29 C 51 29.550781 51.449219 30 52 30 Z "/>
<path style=" fill:#8D6C9F;" d="M 13 53 C 13 54.105469 12.105469 55 11 55 C 9.894531 55 9 54.105469 9 53 C 9 51.894531 9.894531 51 11 51 C 12.105469 51 13 51.894531 13 53 Z "/>
<path style=" fill:#8D6C9F;" d="M 10 23 L 11 23 C 11.550781 23 12 22.550781 12 22 C 12 21.449219 11.550781 21 11 21 L 10 21 C 9.449219 21 9 21.449219 9 22 C 9 22.550781 9.449219 23 10 23 Z "/>
<path style=" fill:#FFF8F8;" d="M 7.148438 28.5 L 8.378906 30.761719 L 10.648438 32 L 8.378906 33.238281 L 7.148438 35.5 L 5.910156 33.238281 L 3.648438 32 L 5.910156 30.761719 Z "/>
<path style=" fill:#FFF8F8;" d="M 16.058594 36 L 16.921875 37.558594 L 18.480469 38.421875 L 16.921875 39.269531 L 16.058594 40.839844 L 15.210938 39.269531 L 13.640625 38.421875 L 15.210938 37.558594 Z "/>
<path style=" fill:#FFF8F8;" d="M 11 43 L 11.578125 44.058594 L 12.640625 44.648438 L 11.578125 45.230469 L 11 46.300781 L 10.410156 45.230469 L 9.351563 44.648438 L 10.410156 44.058594 Z "/>
</g>
</svg>