<svg xmlns="http://www.w3.org/2000/svg" xmlns:xlink="http://www.w3.org/1999/xlink" viewBox="0 0 64 64" version="1.1" width="64" height="64">
<g id="surface1">
<path style=" fill:#CED8ED;" d="M 5 7 L 59 7 L 59 17 L 5 17 Z "/>
<path style=" fill:#C5E4FA;" d="M 5 17 L 59 17 L 59 53 L 5 53 Z "/>
<path style=" fill:#E3F2FF;" d="M 39.761719 53 L 59 33.761719 L 59 17.078125 L 56.429688 17.078125 L 20.511719 53 Z "/>
<path style=" fill:#E3F2FF;" d="M 8.898438 53 L 16.601563 53 L 52.519531 17.078125 L 44.820313 17.078125 Z "/>
<path style=" fill:#E3F2FF;" d="M 5 51.199219 L 5 52 L 5.480469 52 L 40.398438 17.078125 L 39.121094 17.078125 Z "/>
<path style=" fill:#ED7899;" d="M 33 35 L 39 35 L 39 49 L 33 49 Z "/>
<path style=" fill:#72CAAF;" d="M 43 41 L 49 41 L 49 49 L 43 49 Z "/>
<path style=" fill:#FFEB9B;" d="M 23 43 L 29 43 L 29 49 L 23 49 Z "/>
<path style=" fill:#85CBF8;" d="M 13 39 L 19 39 L 19 49 L 13 49 Z "/>
<path style=" fill:#FFF8F8;" d="M 11.5 20 L 12.738281 22.261719 L 15 23.5 L 12.738281 24.738281 L 11.5 27 L 10.261719 24.738281 L 8 23.5 L 10.261719 22.261719 Z "/>
<path style=" fill:#FFF8F8;" d="M 47.421875 20.160156 L 48.269531 21.730469 L 49.839844 22.578125 L 48.269531 23.441406 L 47.421875 25 L 46.558594 23.441406 L 45 22.578125 L 46.558594 21.730469 Z "/>
<path style=" fill:#FFF8F8;" d="M 24.648438 23.699219 L 25.230469 24.769531 L 26.300781 25.351563 L 25.230469 25.929688 L 24.648438 27 L 24.070313 25.929688 L 23 25.351563 L 24.070313 24.769531 Z "/>
<path style=" fill:#FFF8F8;" d="M 18 30 C 18 31.105469 17.105469 32 16 32 C 14.894531 32 14 31.105469 14 30 C 14 28.894531 14.894531 28 16 28 C 17.105469 28 18 28.894531 18 30 Z "/>
<path style=" fill:#FFF8F8;" d="M 28 34 C 28 35.105469 27.105469 36 26 36 C 24.894531 36 24 35.105469 24 34 C 24 32.894531 24.894531 32 26 32 C 27.105469 32 28 32.894531 28 34 Z "/>
<path style=" fill:#FFF8F8;" d="M 38 25 C 38 26.105469 37.105469 27 36 27 C 34.894531 27 34 26.105469 34 25 C 34 23.894531 34.894531 23 36 23 C 37.105469 23 38 23.894531 38 25 Z "/>
<path style=" fill:#FFF8F8;" d="M 48 31 C 48 32.105469 47.105469 33 46 33 C 44.894531 33 44 32.105469 44 31 C 44 29.894531 44.894531 29 46 29 C 47.105469 29 48 29.894531 48 31 Z "/>
<path style=" fill:#8D6C9F;" d="M 51 48 L 50 48 L 50 41 C 50 40.449219 49.550781 40 49 40 L 43 40 C 42.449219 40 42 40.449219 42 41 L 42 48 L 40 48 L 40 35 C 40 34.449219 39.550781 34 39 34 L 33 34 C 32.449219 34 32 34.449219 32 35 L 32 48 L 30 48 L 30 43 C 30 42.449219 29.550781 42 29 42 L 23 42 C 22.449219 42 22 42.449219 22 43 L 22 48 L 20 48 L 20 39 C 20 38.449219 19.550781 38 19 38 L 13 38 C 12.449219 38 12 38.449219 12 39 L 12 48 L 11 48 C 10.449219 48 10 48.449219 10 49 C 10 49.550781 10.449219 50 11 50 L 51 50 C 51.550781 50 52 49.550781 52 49 C 52 48.449219 51.550781 48 51 48 Z M 14 48 L 14 40 L 18 40 L 18 48 Z M 24 48 L 24 44 L 28 44 L 28 48 Z M 34 48 L 34 36 L 38 36 L 38 48 Z M 44 48 L 44 42 L 48 42 L 48 48 Z "/>
<path style=" fill:#8D6C9F;" d="M 55 16 L 51 16 C 50.449219 16 50 16.449219 50 17 C 50 17.550781 50.449219 18 51 18 L 55 18 C 55.550781 18 56 17.550781 56 17 C 56 16.449219 55.550781 16 55 16 Z "/>
<path style=" fill:#8D6C9F;" d="M 57 6 L 7 6 C 5.34375 6 4 7.34375 4 9 L 4 51 C 4 52.65625 5.34375 54 7 54 L 57 54 C 58.65625 54 60 52.65625 60 51 L 60 9 C 60 7.34375 58.65625 6 57 6 Z M 58 51 C 58 51.550781 57.550781 52 57 52 L 7 52 C 6.449219 52 6 51.550781 6 51 L 6 18 L 47 18 C 47.550781 18 48 17.550781 48 17 C 48 16.449219 47.550781 16 47 16 L 6 16 L 6 9 C 6 8.449219 6.449219 8 7 8 L 57 8 C 57.550781 8 58 8.449219 58 9 Z "/>
<path style=" fill:#8D6C9F;" d="M 20 10 C 19.449219 10 19 10.449219 19 11 L 19 13 C 19 13.550781 19.449219 14 20 14 C 20.550781 14 21 13.550781 21 13 L 21 11 C 21 10.449219 20.550781 10 20 10 Z "/>
<path style=" fill:#8D6C9F;" d="M 15 10 C 14.449219 10 14 10.449219 14 11 L 14 13 C 14 13.550781 14.449219 14 15 14 C 15.550781 14 16 13.550781 16 13 L 16 11 C 16 10.449219 15.550781 10 15 10 Z "/>
<path style=" fill:#8D6C9F;" d="M 10 10 C 9.449219 10 9 10.449219 9 11 L 9 13 C 9 13.550781 9.449219 14 10 14 C 10.550781 14 11 13.550781 11 13 L 11 11 C 11 10.449219 10.550781 10 10 10 Z "/>
<path style=" fill:#8D6C9F;" d="M 35 10 C 34.449219 10 34 10.449219 34 11 L 34 13 C 34 13.550781 34.449219 14 35 14 C 35.550781 14 36 13.550781 36 13 L 36 11 C 36 10.449219 35.550781 10 35 10 Z "/>
<path style=" fill:#8D6C9F;" d="M 40 10 C 39.449219 10 39 10.449219 39 11 L 39 13 C 39 13.550781 39.449219 14 40 14 C 40.550781 14 41 13.550781 41 13 L 41 11 C 41 10.449219 40.550781 10 40 10 Z "/>
<path style=" fill:#8D6C9F;" d="M 45 10 C 44.449219 10 44 10.449219 44 11 L 44 13 C 44 13.550781 44.449219 14 45 14 C 45.550781 14 46 13.550781 46 13 L 46 11 C 46 10.449219 45.550781 10 45 10 Z "/>
<path style=" fill:#8D6C9F;" d="M 50 14 C 50.550781 14 51 13.550781 51 13 L 51 11 C 51 10.449219 50.550781 10 50 10 C 49.449219 10 49 10.449219 49 11 L 49 13 C 49 13.550781 49.449219 14 50 14 Z "/>
<path style=" fill:#8D6C9F;" d="M 55 10 C 54.449219 10 54 10.449219 54 11 L 54 13 C 54 13.550781 54.449219 14 55 14 C 55.550781 14 56 13.550781 56 13 L 56 11 C 56 10.449219 55.550781 10 55 10 Z "/>
<path style=" fill:#8D6C9F;" d="M 25 10 C 24.449219 10 24 10.449219 24 11 L 24 13 C 24 13.550781 24.449219 14 25 14 C 25.550781 14 26 13.550781 26 13 L 26 11 C 26 10.449219 25.550781 10 25 10 Z "/>
<path style=" fill:#8D6C9F;" d="M 30 10 C 29.449219 10 29 10.449219 29 11 L 29 13 C 29 13.550781 29.449219 14 30 14 C 30.550781 14 31 13.550781 31 13 L 31 11 C 31 10.449219 30.550781 10 30 10 Z "/>
<path style=" fill:#8D6C9F;" d="M 54.289063 21.289063 L 47.289063 28.289063 C 46.246094 27.773438 44.996094 27.929688 44.109375 28.679688 L 38.949219 25.578125 C 39.207031 24.320313 38.632813 23.035156 37.519531 22.386719 C 36.40625 21.738281 35.003906 21.875 34.035156 22.722656 C 33.066406 23.570313 32.746094 24.941406 33.238281 26.128906 L 27.429688 31.359375 C 26.210938 30.675781 24.679688 30.949219 23.769531 32.011719 L 19 30.121094 C 19 30.121094 19 30 19 30 C 19 28.34375 17.65625 27 16 27 C 14.34375 27 13 28.34375 13 30 C 13.003906 30.277344 13.050781 30.554688 13.128906 30.820313 L 8.421875 34.191406 C 7.96875 34.511719 7.863281 35.136719 8.183594 35.585938 C 8.503906 36.035156 9.128906 36.140625 9.578125 35.820313 L 14.28125 32.460938 C 15.539063 33.351563 17.269531 33.144531 18.28125 31.980469 L 23 33.878906 C 23 33.878906 23 34 23 34 C 23 35.214844 23.730469 36.308594 24.851563 36.773438 C 25.972656 37.238281 27.265625 36.980469 28.121094 36.121094 C 28.980469 35.261719 29.234375 33.972656 28.769531 32.851563 L 34.578125 27.621094 C 35.644531 28.222656 36.96875 28.09375 37.898438 27.300781 L 43.058594 30.398438 C 42.832031 31.519531 43.261719 32.671875 44.167969 33.371094 C 45.070313 34.070313 46.296875 34.195313 47.320313 33.691406 C 48.347656 33.1875 49 32.144531 49 31 C 48.996094 30.554688 48.894531 30.113281 48.699219 29.710938 L 55.699219 22.710938 C 56.039063 22.3125 56.015625 21.722656 55.648438 21.351563 C 55.277344 20.984375 54.6875 20.960938 54.289063 21.300781 Z M 16 31.171875 C 15.355469 31.171875 14.828125 30.644531 14.828125 30 C 14.828125 29.355469 15.355469 28.828125 16 28.828125 C 16.644531 28.828125 17.171875 29.355469 17.171875 30 C 17.171875 30.644531 16.644531 31.171875 16 31.171875 Z M 26 35.171875 C 25.355469 35.171875 24.828125 34.644531 24.828125 34 C 24.828125 33.355469 25.355469 32.828125 26 32.828125 C 26.644531 32.828125 27.171875 33.355469 27.171875 34 C 27.171875 34.644531 26.644531 35.171875 26 35.171875 Z M 36 26.171875 C 35.355469 26.171875 34.828125 25.644531 34.828125 25 C 34.828125 24.355469 35.355469 23.828125 36 23.828125 C 36.644531 23.828125 37.171875 24.355469 37.171875 25 C 37.171875 25.644531 36.644531 26.171875 36 26.171875 Z M 46 32.171875 C 45.507813 32.167969 45.0625 31.871094 44.878906 31.414063 C 44.695313 30.957031 44.804688 30.433594 45.160156 30.089844 C 45.515625 29.746094 46.039063 29.652344 46.492188 29.855469 C 46.941406 30.054688 47.226563 30.507813 47.210938 31 C 47.210938 31.667969 46.667969 32.210938 46 32.210938 Z "/>
</g>
</svg>